<?xml version="1.0" standalone="no"?>
<!DOCTYPE svg PUBLIC "-//W3C//DTD SVG 20010904//EN"
 "http://www.w3.org/TR/2001/REC-SVG-20010904/DTD/svg10.dtd">
<svg version="1.0" xmlns="http://www.w3.org/2000/svg"
 width="1080.000000pt" height="1080.000000pt" viewBox="0 0 1080.000000 1080.000000"
 preserveAspectRatio="xMidYMid meet">
<metadata>
Created by potrace 1.11, written by Peter Selinger 2001-2013
</metadata>
<g transform="translate(0.000000,1080.000000) scale(0.100000,-0.100000)"
fill="#000000" stroke="none">
<path d="M0 5400 l0 -5400 5400 0 5400 0 0 5400 0 5400 -2479 0 c-1974 0
-2480 -3 -2484 -12 -4 -10 -6 -10 -6 0 -1 9 -263 12 -1277 12 -784 0 -1273 -4
-1269 -9 3 -5 1 -12 -5 -16 -5 -3 -10 1 -10 9 0 14 -161 16 -1635 16 l-1635 0
0 -5400z m5830 5290 c0 -5 -2 -10 -4 -10 -3 0 -8 5 -11 10 -3 6 -1 10 4 10 6
0 11 -4 11 -10z m250 -6 c0 -8 -5 -12 -10 -9 -6 4 -8 11 -5 16 9 14 15 11 15
-7z m-1870 -14 c0 -5 -2 -10 -4 -10 -3 0 -8 5 -11 10 -3 6 -1 10 4 10 6 0 11
-4 11 -10z m1090 -60 c0 -5 -4 -10 -10 -10 -5 0 -10 5 -10 10 0 6 5 10 10 10
6 0 10 -4 10 -10z m1165 -10 c3 -5 1 -10 -4 -10 -6 0 -11 5 -11 10 0 6 2 10 4
10 3 0 8 -4 11 -10z m-685 -40 c0 -5 -4 -10 -10 -10 -5 0 -10 5 -10 10 0 6 5
10 10 10 6 0 10 -4 10 -10z m-370 -14 c0 -3 -4 -8 -10 -11 -5 -3 -10 -1 -10 4
0 6 5 11 10 11 6 0 10 -2 10 -4z m945 -6 c3 -5 1 -10 -4 -10 -6 0 -11 5 -11
10 0 6 2 10 4 10 3 0 8 -4 11 -10z m-445 -4 c0 -3 -4 -8 -10 -11 -5 -3 -10 -1
-10 4 0 6 5 11 10 11 6 0 10 -2 10 -4z m-1810 -52 c0 -8 -4 -12 -10 -9 -5 3
-10 10 -10 16 0 5 5 9 10 9 6 0 10 -7 10 -16z m1810 12 c0 -3 -4 -8 -10 -11
-5 -3 -10 -1 -10 4 0 6 5 11 10 11 6 0 10 -2 10 -4z m140 -6 c0 -5 -4 -10 -10
-10 -5 0 -10 5 -10 10 0 6 5 10 10 10 6 0 10 -4 10 -10z m-204 -15 c-11 -8
-22 -12 -25 -9 -6 6 19 24 34 24 6 -1 1 -7 -9 -15z m-716 -5 c0 -5 -5 -10 -11
-10 -5 0 -7 5 -4 10 3 6 8 10 11 10 2 0 4 -4 4 -10z m-1043 -32 c-3 -8 -6 -5
-6 6 -1 11 2 17 5 13 3 -3 4 -12 1 -19z m1338 12 c3 -5 -1 -10 -9 -10 -9 0
-16 5 -16 10 0 6 4 10 9 10 6 0 13 -4 16 -10z m-2425 -285 l0 -285 -225 0
-225 0 0 285 0 285 225 0 225 0 0 -285z m1130 251 c0 -3 -4 -8 -10 -11 -5 -3
-10 -1 -10 4 0 6 5 11 10 11 6 0 10 -2 10 -4z m1495 -6 c3 -5 1 -10 -4 -10 -6
0 -11 5 -11 10 0 6 2 10 4 10 3 0 8 -4 11 -10z m195 0 c0 -5 -2 -10 -4 -10 -3
0 -8 5 -11 10 -3 6 -1 10 4 10 6 0 11 -4 11 -10z m110 -26 c0 -8 -4 -12 -10
-9 -5 3 -10 10 -10 16 0 5 5 9 10 9 6 0 10 -7 10 -16z m-350 -10 c0 -8 -4 -12
-10 -9 -5 3 -10 10 -10 16 0 5 5 9 10 9 6 0 10 -7 10 -16z m240 1 c0 -8 -4
-15 -10 -15 -5 0 -10 7 -10 15 0 8 5 15 10 15 6 0 10 -7 10 -15z m-50 -5 c0
-5 -4 -10 -10 -10 -5 0 -10 5 -10 10 0 6 5 10 10 10 6 0 10 -4 10 -10z m130 0
c0 -5 -5 -10 -11 -10 -5 0 -7 5 -4 10 3 6 8 10 11 10 2 0 4 -4 4 -10z m-422
-43 c2 -10 -3 -17 -12 -17 -9 0 -14 8 -13 20 2 24 21 21 25 -3z m280 12 c-2
-6 -8 -10 -13 -10 -5 0 -11 4 -13 10 -2 6 4 11 13 11 9 0 15 -5 13 -11z m-345
-35 c3 -4 -1 -13 -9 -21 -8 -9 -18 -12 -22 -8 -4 4 -1 10 6 12 6 3 10 9 6 14
-6 10 9 12 19 3z m497 -14 c0 -5 -4 -10 -10 -10 -5 0 -10 5 -10 10 0 6 5 10
10 10 6 0 10 -4 10 -10z m-1570 -19 c0 -6 -4 -13 -10 -16 -5 -3 -10 1 -10 9 0
9 5 16 10 16 6 0 10 -4 10 -9z m1480 5 c0 -3 -4 -8 -10 -11 -5 -3 -10 -1 -10
4 0 6 5 11 10 11 6 0 10 -2 10 -4z m-1405 -38 c21 -9 35 -28 21 -28 -16 0 -56
21 -56 30 0 13 3 13 35 -2z m1067 -10 c-7 -7 -12 -8 -12 -2 0 6 3 14 7 17 3 4
9 5 12 2 2 -3 -1 -11 -7 -17z m-152 -4 c0 -8 -4 -12 -10 -9 -5 3 -10 10 -10
16 0 5 5 9 10 9 6 0 10 -7 10 -16z m380 1 c0 -8 -4 -15 -10 -15 -5 0 -10 7
-10 15 0 8 5 15 10 15 6 0 10 -7 10 -15z m-1143 -31 c-3 -3 -12 -4 -19 -1 -8
3 -5 6 6 6 11 1 17 -2 13 -5z m563 -4 c0 -5 -4 -10 -10 -10 -5 0 -10 5 -10 10
0 6 5 10 10 10 6 0 10 -4 10 -10z m500 -14 c0 -15 -7 -26 -20 -29 -27 -7 -36
10 -10 18 23 7 26 21 8 28 -8 3 -6 6 5 6 11 1 17 -7 17 -23z m530 20 c0 -2 -7
-9 -15 -16 -12 -10 -15 -10 -15 4 0 9 7 16 15 16 8 0 15 -2 15 -4z m75 -6 c-3
-5 -10 -10 -16 -10 -5 0 -9 5 -9 10 0 6 7 10 16 10 8 0 12 -4 9 -10z m-1729
-17 c18 -24 17 -33 -1 -33 -8 0 -15 4 -15 9 0 5 -3 16 -6 25 -8 21 6 20 22 -1z
m1684 -3 c0 -5 -7 -10 -15 -10 -8 0 -15 5 -15 10 0 6 7 10 15 10 8 0 15 -4 15
-10z m-885 -20 c3 -5 -1 -10 -10 -10 -9 0 -13 5 -10 10 3 6 8 10 10 10 2 0 7
-4 10 -10z m-648 -6 c-3 -3 -12 -4 -19 -1 -8 3 -5 6 6 6 11 1 17 -2 13 -5z
m1025 -28 c4 -21 3 -23 -14 -13 -21 14 -24 37 -4 37 7 0 16 -11 18 -24z m188
-6 c0 -5 -4 -10 -10 -10 -5 0 -10 5 -10 10 0 6 5 10 10 10 6 0 10 -4 10 -10z
m-115 -9 c3 -5 1 -12 -5 -16 -5 -3 -10 1 -10 9 0 18 6 21 15 7z m114 -28 c11
-9 18 -20 15 -25 -8 -12 -44 10 -44 27 0 19 5 19 29 -2z m51 13 c0 -11 -19
-15 -25 -6 -3 5 1 10 9 10 9 0 16 -2 16 -4z m-650 -15 c0 -5 -7 -11 -14 -14
-10 -4 -13 -1 -9 9 6 15 23 19 23 5z m-517 -31 c3 -11 2 -20 -3 -20 -8 0 -20
24 -20 41 0 17 17 1 23 -21z m337 16 c0 -11 -19 -15 -25 -6 -3 5 1 10 9 10 9
0 16 -2 16 -4z m340 -6 c0 -5 -5 -10 -11 -10 -5 0 -7 5 -4 10 3 6 8 10 11 10
2 0 4 -4 4 -10z m-803 -22 c-3 -8 -6 -5 -6 6 -1 11 2 17 5 13 3 -3 4 -12 1
-19z m1133 -18 c19 -32 28 -39 45 -34 35 11 40 10 39 -8 -1 -10 3 -18 8 -18 6
0 8 -12 5 -27 -6 -32 8 -51 79 -108 40 -32 61 -38 56 -17 -3 17 27 27 41 13 8
-8 8 -11 -1 -11 -21 0 -13 -25 18 -52 16 -14 46 -29 67 -33 21 -4 41 -11 44
-17 9 -14 79 2 79 18 0 18 18 18 36 0 12 -13 9 -16 -22 -26 -84 -28 -289 32
-359 105 -16 17 -50 58 -75 91 -25 32 -48 61 -52 62 -5 2 -8 12 -8 22 0 9 -6
23 -14 29 -15 13 -28 51 -18 51 4 0 18 -18 32 -40z m-970 20 c0 -5 -4 -10 -10
-10 -5 0 -10 5 -10 10 0 6 5 10 10 10 6 0 10 -4 10 -10z m820 0 c0 -5 -4 -10
-10 -10 -5 0 -10 5 -10 10 0 6 5 10 10 10 6 0 10 -4 10 -10z m-127 -20 c-3
-12 -8 -19 -11 -16 -5 6 5 36 12 36 2 0 2 -9 -1 -20z m582 1 c7 -12 -12 -24
-25 -16 -11 7 -4 25 10 25 5 0 11 -4 15 -9z m95 -1 c0 -5 -4 -10 -10 -10 -5 0
-10 5 -10 10 0 6 5 10 10 10 6 0 10 -4 10 -10z m120 -20 c0 -5 -5 -12 -11 -16
-12 -7 -31 15 -23 28 6 9 34 -1 34 -12z m-1050 6 c0 -11 -19 -15 -25 -6 -3 5
1 10 9 10 9 0 16 -2 16 -4z m-387 -22 c9 -10 -4 -34 -19 -34 -8 0 -14 6 -14
13 0 22 19 35 33 21z m-73 -14 c0 -5 -4 -10 -9 -10 -6 0 -13 5 -16 10 -3 6 1
10 9 10 9 0 16 -4 16 -10z m247 -6 c4 -12 -37 -38 -45 -28 -4 4 -1 9 6 11 6 3
12 11 12 20 0 15 21 14 27 -3z m1043 -14 c0 -5 -4 -10 -10 -10 -5 0 -10 5 -10
10 0 6 5 10 10 10 6 0 10 -4 10 -10z m-490 -10 c0 -5 -4 -10 -10 -10 -5 0 -10
5 -10 10 0 6 5 10 10 10 6 0 10 -4 10 -10z m580 -9 c0 -11 -4 -23 -10 -26 -5
-3 -10 -2 -10 4 0 5 -3 16 -6 25 -4 11 -1 16 10 16 9 0 16 -8 16 -19z m-1397
3 c3 -3 3 -12 0 -20 -4 -10 -8 -11 -18 -1 -7 7 -11 15 -8 20 5 9 17 9 26 1z
m1357 -9 c0 -8 -7 -15 -15 -15 -8 0 -15 7 -15 15 0 8 7 15 15 15 8 0 15 -7 15
-15z m-1425 -5 c3 -5 -1 -10 -10 -10 -9 0 -13 5 -10 10 3 6 8 10 10 10 2 0 7
-4 10 -10z m235 0 c0 -5 -2 -10 -4 -10 -3 0 -8 5 -11 10 -3 6 -1 10 4 10 6 0
11 -4 11 -10z m1341 -2 c1 -7 1 -16 0 -20 0 -5 4 -8 10 -8 6 0 9 -7 6 -15 -4
-8 -2 -17 4 -20 5 -4 9 -3 8 2 -4 21 2 33 16 33 22 0 19 -27 -4 -40 -22 -11
-62 -14 -46 -2 16 11 11 37 -7 36 -10 -1 -15 5 -13 15 2 9 4 19 4 24 2 12 21
8 22 -5z m-1434 -4 c-3 -3 -12 -4 -19 -1 -8 3 -5 6 6 6 11 1 17 -2 13 -5z
m1162 -21 c7 -13 5 -21 -7 -30 -16 -11 -16 -12 0 -13 12 0 15 -5 11 -16 -9
-23 -49 -14 -45 11 2 11 3 30 3 43 -1 26 24 30 38 5z m211 3 c0 -8 -4 -17 -8
-20 -13 -8 -35 11 -28 23 10 16 36 14 36 -3z m-2470 -11 c0 -8 -4 -15 -10 -15
-5 0 -10 7 -10 15 0 8 5 15 10 15 6 0 10 -7 10 -15z m1090 0 c0 -8 -4 -15 -10
-15 -5 0 -10 7 -10 15 0 8 5 15 10 15 6 0 10 -7 10 -15z m1120 -5 c0 -5 -7
-10 -15 -10 -8 0 -15 5 -15 10 0 6 7 10 15 10 8 0 15 -4 15 -10z m-1044 -15
c-10 -8 -23 -12 -27 -9 -5 3 -9 0 -9 -5 0 -6 -9 -11 -20 -11 -31 0 -24 15 13
27 49 16 66 15 43 -2z m64 -5 c0 -5 -4 -10 -10 -10 -5 0 -10 5 -10 10 0 6 5
10 10 10 6 0 10 -4 10 -10z m1174 4 c17 -7 10 -34 -9 -34 -17 0 -28 17 -20 30
7 12 8 12 29 4z m-1222 -49 c-2 -11 -10 -27 -18 -35 -12 -12 -14 -11 -14 8 0
12 -4 22 -10 22 -5 0 -10 5 -10 11 0 5 5 7 10 4 6 -3 10 -1 10 5 0 6 8 10 18
8 11 -2 16 -11 14 -23z m1188 9 c0 -8 5 -12 10 -9 6 3 10 -3 10 -14 0 -27 -26
-27 -33 -1 -3 13 -10 18 -21 14 -11 -4 -16 -1 -16 10 0 10 9 16 25 16 16 0 25
-6 25 -16z m-1070 -4 c0 -5 -4 -10 -10 -10 -5 0 -10 5 -10 10 0 6 5 10 10 10
6 0 10 -4 10 -10z m234 -18 c3 -9 9 -23 12 -29 3 -7 -1 -13 -9 -13 -8 0 -18
11 -21 25 -4 14 -11 25 -17 25 -6 0 -8 4 -4 10 8 13 32 2 39 -18z m979 -2 c9
0 17 -6 17 -14 0 -9 -13 -13 -43 -12 -37 1 -43 4 -39 19 3 13 11 17 26 13 11
-3 29 -6 39 -6z m-1510 -28 c-5 -22 -19 -27 -47 -16 -27 10 -20 35 8 28 13 -3
27 -1 31 6 10 17 15 7 8 -18z m217 18 c0 -5 -4 -10 -10 -10 -5 0 -10 5 -10 10
0 6 5 10 10 10 6 0 10 -4 10 -10z m-380 -10 c0 -5 -4 -10 -9 -10 -6 0 -13 5
-16 10 -3 6 1 10 9 10 9 0 16 -4 16 -10z m280 -6 c0 -3 -7 -12 -15 -20 -13
-14 -15 -13 -15 5 0 12 6 21 15 21 8 0 15 -3 15 -6z m380 -24 c0 -5 -4 -10
-10 -10 -5 0 -10 5 -10 10 0 6 5 10 10 10 6 0 10 -4 10 -10z m-154 -55 c-1
-24 -5 -48 -9 -51 -4 -4 -7 -2 -7 4 0 18 -17 14 -39 -9 -12 -13 -21 -17 -26
-10 -3 6 5 16 19 23 26 11 35 28 16 28 -5 0 -10 7 -10 15 0 8 9 15 20 15 13 0
18 5 14 15 -4 9 0 15 9 15 13 0 15 -10 13 -45z m-406 26 c0 -14 -18 -23 -31
-15 -8 4 -7 9 2 15 18 11 29 11 29 0z m233 -18 c7 -36 -5 -48 -32 -32 -16 11
-23 11 -33 1 -15 -15 -10 -20 24 -24 42 -6 80 -48 43 -48 -8 0 -15 4 -15 9 0
5 -12 12 -27 16 -16 5 -35 10 -43 13 -8 2 -25 4 -37 4 -13 0 -23 3 -23 7 0 11
83 61 102 61 10 0 18 5 18 10 0 22 18 8 23 -17z m394 10 c5 -15 -36 -28 -49
-15 -6 6 -7 15 -3 22 9 14 47 9 52 -7z m-294 -18 c3 -7 -4 -23 -15 -35 -11
-12 -20 -33 -20 -46 0 -13 -4 -24 -9 -24 -5 0 -9 7 -9 15 0 8 -5 15 -11 15 -7
0 -8 11 -4 30 4 19 3 30 -4 30 -6 0 -11 7 -11 15 0 18 12 19 28 3 9 -9 13 -8
17 5 7 17 31 13 38 -8z m247 -21 c0 -8 6 -14 14 -14 7 0 21 -11 30 -25 9 -14
12 -25 6 -25 -5 0 -10 5 -10 10 0 6 -4 10 -10 10 -14 0 -12 -38 3 -43 21 -8 0
-19 -23 -12 -15 5 -19 12 -14 23 13 33 9 56 -13 67 -17 9 -20 14 -11 23 13 13
28 6 28 -14z m770 16 c0 -5 -2 -10 -4 -10 -3 0 -8 5 -11 10 -3 6 -1 10 4 10 6
0 11 -4 11 -10z m-710 -10 c0 -5 -5 -10 -11 -10 -5 0 -7 5 -4 10 3 6 8 10 11
10 2 0 4 -4 4 -10z m-200 -10 c0 -5 -4 -10 -10 -10 -5 0 -10 5 -10 10 0 6 5
10 10 10 6 0 10 -4 10 -10z m1255 -10 c-3 -5 -11 -10 -16 -10 -6 0 -7 5 -4 10
3 6 11 10 16 10 6 0 7 -4 4 -10z m-995 -25 c0 -8 -7 -15 -15 -15 -8 0 -15 7
-15 15 0 8 7 15 15 15 8 0 15 -7 15 -15z m-225 -4 c3 -5 1 -12 -5 -16 -5 -3
-10 1 -10 9 0 18 6 21 15 7z m265 -1 c0 -5 -4 -10 -10 -10 -5 0 -10 5 -10 10
0 6 5 10 10 10 6 0 10 -4 10 -10z m116 -18 c-22 -5 -30 3 -21 18 5 8 11 7 22
-2 15 -12 14 -13 -1 -16z m141 8 c13 0 23 -4 23 -10 0 -5 -11 -10 -25 -10 -14
0 -28 -1 -32 -2 -5 -2 -10 8 -11 22 -3 20 -1 23 9 13 7 -7 23 -13 36 -13z
m417 -6 c3 -9 6 -25 6 -37 -1 -21 -1 -21 -16 3 l-15 25 7 -24 c5 -20 3 -23
-11 -18 -9 4 -21 7 -26 7 -20 0 -7 30 16 36 14 3 22 10 19 15 -3 5 -1 9 4 9 6
0 13 -7 16 -16z m86 -44 c0 -5 -9 -11 -19 -15 -12 -4 -18 -12 -14 -21 4 -10 0
-12 -10 -8 -12 4 -15 17 -13 52 2 26 4 49 5 52 2 8 51 -50 51 -60z m35 50 c3
-5 -1 -10 -10 -10 -9 0 -13 5 -10 10 3 6 8 10 10 10 2 0 7 -4 10 -10z m-1680
-10 c3 -5 1 -10 -4 -10 -6 0 -11 5 -11 10 0 6 2 10 4 10 3 0 8 -4 11 -10z
m1205 -6 c0 -8 -5 -12 -10 -9 -6 4 -8 11 -5 16 9 14 15 11 15 -7z m-716 -15
c-3 -5 -10 -7 -15 -3 -5 3 -7 10 -3 15 3 5 10 7 15 3 5 -3 7 -10 3 -15z m346
17 c0 -3 -4 -8 -10 -11 -5 -3 -10 -1 -10 4 0 6 5 11 10 11 6 0 10 -2 10 -4z
m42 -5 c2 -5 18 -17 37 -28 40 -22 49 -38 26 -47 -9 -3 -26 6 -44 24 -15 17
-33 30 -40 30 -12 0 -15 13 -4 23 9 10 21 9 25 -2z m435 3 c-3 -3 -12 -4 -19
-1 -8 3 -5 6 6 6 11 1 17 -2 13 -5z m-994 -47 c-4 -6 -12 -3 -20 8 -20 28 -16
41 7 20 11 -10 17 -22 13 -28z m-90 15 c3 10 9 9 24 -4 11 -10 24 -18 29 -18
6 0 26 -14 45 -30 18 -17 35 -26 37 -20 2 5 10 10 18 10 8 0 11 -6 8 -15 -9
-23 15 -45 50 -45 43 0 60 -13 51 -39 -5 -17 -1 -23 21 -31 15 -6 33 -9 40 -6
17 7 46 -29 42 -51 -2 -10 -11 -18 -21 -18 -21 0 -41 -30 -34 -50 3 -7 -3 -21
-14 -31 -15 -13 -19 -14 -19 -3 0 8 -11 21 -23 30 -22 16 -23 15 -34 -7 -11
-23 -1 -35 12 -14 10 17 25 11 25 -9 0 -23 16 -36 25 -21 8 13 45 13 45 0 0
-5 4 -10 8 -10 4 0 7 16 7 35 -1 20 3 39 9 43 23 15 37 54 31 85 -5 29 -5 30
8 15 8 -10 22 -18 31 -18 22 0 20 -21 -3 -27 -11 -3 -17 -11 -15 -18 3 -7 -4
-20 -16 -28 -15 -11 -21 -26 -22 -60 0 -39 -4 -46 -25 -52 -35 -8 -89 4 -109
26 -18 20 -54 26 -54 9 0 -5 -17 -8 -37 -7 -30 2 -38 6 -40 22 -1 11 -3 29 -5
40 -2 16 2 19 25 17 15 -2 27 1 27 7 0 6 -6 8 -12 6 -12 -5 -43 44 -34 52 2 2
16 -1 31 -7 34 -13 47 -3 21 15 -10 8 -16 21 -13 29 3 8 -1 17 -9 20 -9 4 -14
-1 -14 -14 0 -11 -5 -20 -10 -20 -18 0 -23 29 -9 47 12 15 12 16 -3 10 -10 -4
-24 1 -35 11 -16 16 -16 17 5 20 29 4 28 13 -5 43 -22 20 -25 21 -19 5 8 -24
-2 -58 -15 -50 -6 3 -9 18 -8 32 4 32 -7 53 -24 47 -7 -3 -20 7 -31 21 -15 22
-16 28 -5 35 9 6 18 3 25 -7 9 -12 13 -12 17 -2z m327 8 c0 -5 -7 -10 -15 -10
-8 0 -15 5 -15 10 0 6 7 10 15 10 8 0 15 -4 15 -10z m-483 -22 c-3 -8 -6 -5
-6 6 -1 11 2 17 5 13 3 -3 4 -12 1 -19z m373 12 c0 -6 10 -8 23 -5 15 4 28 1
36 -9 16 -19 9 -20 -41 -5 -34 9 -53 29 -28 29 6 0 10 -5 10 -10z m268 -54 c0
-23 -1 -23 -19 -5 -11 11 -24 19 -29 19 -7 0 -7 7 0 21 11 19 13 20 30 4 9 -9
18 -26 18 -39z m612 44 c0 -5 -4 -10 -9 -10 -6 0 -13 5 -16 10 -3 6 1 10 9 10
9 0 16 -4 16 -10z m-1660 -4 c0 -3 -4 -8 -10 -11 -5 -3 -10 -1 -10 4 0 6 5 11
10 11 6 0 10 -2 10 -4z m1112 -28 c-6 -6 -15 -9 -18 -5 -4 3 -4 14 0 23 5 13
9 15 18 6 9 -9 9 -15 0 -24z m678 18 c0 -8 -4 -17 -10 -21 -5 -3 -7 -12 -3
-20 6 -18 -11 -20 -25 -2 -8 10 -6 16 9 25 11 7 17 17 14 22 -3 6 -1 10 4 10
6 0 11 -6 11 -14z m371 -9 c-13 -13 -26 -3 -16 12 3 6 11 8 17 5 6 -4 6 -10
-1 -17z m-451 3 c0 -12 -28 -25 -36 -17 -9 9 6 27 22 27 8 0 14 -5 14 -10z
m190 -5 c0 -15 -10 -19 -45 -15 -41 4 -31 24 14 27 21 2 31 -2 31 -12z m-572
-13 c2 -7 -3 -12 -12 -12 -9 0 -16 7 -16 16 0 17 22 14 28 -4z m-958 -18 c0
-2 -7 -4 -15 -4 -8 0 -15 4 -15 10 0 5 7 7 15 4 8 -4 15 -8 15 -10z m605 6 c9
-15 -4 -50 -19 -50 -6 0 -17 5 -24 12 -9 9 -8 16 6 29 20 21 28 23 37 9z m414
-11 c40 -24 31 -46 -12 -30 -21 8 -28 7 -35 -6 -15 -26 -26 5 -11 33 15 29 16
29 58 3z m271 17 c0 -3 -4 -8 -10 -11 -5 -3 -10 -1 -10 4 0 6 5 11 10 11 6 0
10 -2 10 -4z m-1110 -56 c0 -10 7 -20 15 -24 8 -3 15 -12 15 -21 0 -8 3 -14 8
-12 4 1 18 -8 30 -19 26 -24 28 -74 3 -82 -10 -3 -12 2 -8 19 8 31 -9 62 -19
36 -10 -26 -22 -21 -29 13 -4 16 -13 33 -20 38 -16 8 -47 87 -38 96 10 9 43
-25 43 -44z m600 40 c0 -5 -4 -10 -10 -10 -5 0 -10 5 -10 10 0 6 5 10 10 10 6
0 10 -4 10 -10z m-940 -10 c0 -5 -2 -10 -4 -10 -3 0 -8 5 -11 10 -3 6 -1 10 4
10 6 0 11 -4 11 -10z m570 -5 c7 -9 11 -18 8 -20 -9 -10 -38 7 -38 21 0 18 14
18 30 -1z m120 5 c0 -5 -2 -10 -4 -10 -3 0 -8 5 -11 10 -3 6 -1 10 4 10 6 0
11 -4 11 -10z m944 -6 c10 -25 1 -27 -19 -4 -15 17 -16 20 -3 20 9 0 19 -7 22
-16z m371 6 c11 -18 -5 -31 -21 -16 -8 8 -14 17 -14 20 0 10 28 7 35 -4z
m-585 -20 c0 -11 -4 -20 -10 -20 -5 0 -10 9 -10 20 0 11 5 20 10 20 6 0 10 -9
10 -20z m-496 -5 c4 -13 2 -14 -14 -5 -23 13 -26 20 -6 20 8 0 16 -7 20 -15z
m913 -17 c-3 -8 -6 -5 -6 6 -1 11 2 17 5 13 3 -3 4 -12 1 -19z m133 12 c0 -5
-2 -10 -4 -10 -3 0 -8 5 -11 10 -3 6 -1 10 4 10 6 0 11 -4 11 -10z m-800 -10
c0 -5 -4 -10 -10 -10 -5 0 -10 5 -10 10 0 6 5 10 10 10 6 0 10 -4 10 -10z m96
0 c8 0 14 -7 14 -15 0 -18 -52 -33 -58 -17 -2 7 -11 12 -20 12 -15 1 -14 3 3
16 11 8 26 12 33 9 8 -3 20 -5 28 -5z m44 -4 c0 -3 -4 -8 -10 -11 -5 -3 -10
-1 -10 4 0 6 5 11 10 11 6 0 10 -2 10 -4z m-560 -22 c0 -2 -7 -4 -15 -4 -8 0
-15 4 -15 10 0 5 7 7 15 4 8 -4 15 -8 15 -10z m150 -15 c0 -11 -4 -17 -10 -14
-5 3 -10 15 -10 26 0 11 5 17 10 14 6 -3 10 -15 10 -26z m-220 11 c0 -5 -5
-10 -11 -10 -5 0 -7 5 -4 10 3 6 8 10 11 10 2 0 4 -4 4 -10z m670 -5 c0 -8 -5
-15 -11 -15 -7 0 -18 -8 -25 -17 -12 -16 -13 -16 -14 9 0 14 6 29 13 31 23 10
37 7 37 -8z m-1220 -5 c0 -5 -2 -10 -4 -10 -3 0 -8 5 -11 10 -3 6 -1 10 4 10
6 0 11 -4 11 -10z m1414 -10 c4 -5 -1 -13 -12 -19 -15 -8 -23 -7 -32 3 -9 12
-16 12 -41 -2 -25 -15 -31 -15 -39 -2 -9 15 -4 33 9 26 4 -3 13 -1 21 4 15 9
80 2 94 -10z m416 11 c0 -6 -4 -13 -10 -16 -5 -3 -10 1 -10 9 0 9 5 16 10 16
6 0 10 -4 10 -9z m-2250 -11 c0 -5 -4 -10 -10 -10 -5 0 -10 5 -10 10 0 6 5 10
10 10 6 0 10 -4 10 -10z m1095 -1 c10 -15 -1 -23 -20 -15 -9 3 -13 10 -10 16
8 13 22 13 30 -1z m193 -1 c15 -15 16 -28 2 -28 -5 0 -10 6 -10 14 0 8 -6 17
-12 19 -7 3 -8 6 -2 6 5 1 15 -4 22 -11z m-2396 -500 c2 -271 2 -886 0 -1365
l-2 -873 -219 0 c-121 0 -226 3 -235 6 -17 7 -22 34 -6 34 7 0 10 455 10 1345
l0 1345 225 0 225 0 2 -492z m2978 477 c0 -9 -9 -15 -21 -15 -18 0 -19 2 -9
15 7 8 16 15 21 15 5 0 9 -7 9 -15z m-1260 -15 c0 -10 -39 -24 -47 -17 -3 3 1
12 8 20 14 14 39 12 39 -3z m1032 -2 c-6 -6 -16 -7 -22 -3 -9 6 -9 9 1 16 17
10 34 0 21 -13z m273 11 c10 -15 -1 -23 -20 -15 -9 3 -13 10 -10 16 8 13 22
13 30 -1z m-555 -9 c0 -5 -4 -10 -10 -10 -5 0 -10 5 -10 10 0 6 5 10 10 10 6
0 10 -4 10 -10z m700 -10 c0 -5 -2 -10 -4 -10 -3 0 -8 5 -11 10 -3 6 -1 10 4
10 6 0 11 -4 11 -10z m-475 -10 c3 -5 1 -10 -4 -10 -6 0 -11 5 -11 10 0 6 2
10 4 10 3 0 8 -4 11 -10z m-947 -30 c9 -17 22 -28 29 -25 19 7 23 -8 8 -29
-15 -19 -35 -14 -35 10 0 8 -4 14 -10 14 -5 0 -10 7 -10 15 0 8 -6 12 -14 9
-16 -6 -30 11 -21 26 12 19 36 10 53 -20z m756 -12 c20 -39 20 -42 1 -34 -11
4 -17 -3 -22 -24 -6 -33 -15 -37 -32 -16 -9 10 -7 16 5 27 10 8 14 22 10 40
-9 48 15 53 38 7z m236 22 c-8 -5 -19 -10 -25 -10 -5 0 -3 5 5 10 8 5 20 10
25 10 6 0 3 -5 -5 -10z m140 0 c0 -5 -4 -10 -10 -10 -5 0 -10 5 -10 10 0 6 5
10 10 10 6 0 10 -4 10 -10z m-485 -10 c3 -5 1 -10 -4 -10 -6 0 -11 5 -11 10 0
6 2 10 4 10 3 0 8 -4 11 -10z m145 0 c0 -5 -4 -10 -10 -10 -5 0 -10 5 -10 10
0 6 5 10 10 10 6 0 10 -4 10 -10z m700 6 c0 -3 -4 -8 -10 -11 -5 -3 -10 -1
-10 4 0 6 5 11 10 11 6 0 10 -2 10 -4z m-53 -22 c9 -9 12 -19 7 -24 -5 -5 -14
1 -21 16 -13 28 -8 31 14 8z m174 -7 c-13 -13 -26 -3 -16 12 3 6 11 8 17 5 6
-4 6 -10 -1 -17z m-1657 -51 c-11 -14 -25 -26 -31 -26 -16 0 -17 16 -2 26 6 3
8 16 5 29 -8 31 3 37 26 15 20 -18 20 -19 2 -44z m499 38 c3 -4 2 -15 -3 -25
-6 -10 -6 -20 -1 -23 5 -3 7 -15 4 -27 -4 -12 0 -25 8 -30 11 -7 11 -11 1 -17
-7 -5 -10 -16 -6 -26 6 -15 3 -17 -14 -11 -13 4 -22 2 -22 -4 0 -6 5 -11 10
-11 18 0 10 -29 -10 -35 -11 -3 -20 -11 -20 -16 0 -14 38 -11 47 5 4 7 18 16
30 20 16 5 25 2 33 -14 11 -21 5 -44 -10 -35 -15 9 -41 -44 -34 -70 5 -19 2
-25 -9 -25 -16 0 -33 52 -22 70 8 12 -15 13 -34 1 -11 -7 -21 -3 -36 14 -27
28 -23 81 6 90 11 4 17 11 13 16 -3 6 -12 8 -20 5 -19 -7 -30 14 -13 25 8 5
22 6 31 3 11 -3 19 3 24 18 3 13 11 26 16 29 6 4 3 17 -7 32 -9 15 -14 31 -10
37 7 11 38 14 48 4z m166 -3 c20 -13 -3 -23 -33 -15 -14 3 -23 10 -20 15 7 11
35 11 53 0z m1249 -2 c-2 -6 -8 -10 -13 -10 -5 0 -11 4 -13 10 -2 6 4 11 13
11 9 0 15 -5 13 -11z m132 1 c0 -5 -4 -10 -10 -10 -5 0 -10 5 -10 10 0 6 5 10
10 10 6 0 10 -4 10 -10z m-1070 -10 c0 -5 -4 -10 -10 -10 -5 0 -10 5 -10 10 0
6 5 10 10 10 6 0 10 -4 10 -10z m850 0 c0 -5 -4 -10 -10 -10 -5 0 -10 5 -10
10 0 6 5 10 10 10 6 0 10 -4 10 -10z m-2130 -10 c0 -5 -2 -10 -4 -10 -3 0 -8
5 -11 10 -3 6 -1 10 4 10 6 0 11 -4 11 -10z m840 6 c0 -3 -4 -8 -10 -11 -5 -3
-10 -1 -10 4 0 6 5 11 10 11 6 0 10 -2 10 -4z m190 -5 c0 -13 -28 -22 -35 -11
-3 4 1 11 7 13 20 8 28 8 28 -2z m-610 -8 c0 -14 -19 -38 -25 -32 -8 8 5 39
16 39 5 0 9 -3 9 -7z m900 -3 c0 -5 -4 -10 -10 -10 -5 0 -10 5 -10 10 0 6 5
10 10 10 6 0 10 -4 10 -10z m277 -12 c-3 -8 -6 -5 -6 6 -1 11 2 17 5 13 3 -3
4 -12 1 -19z m-207 -9 c0 -6 -4 -7 -10 -4 -6 3 -7 -1 -4 -9 4 -11 -2 -19 -17
-25 -31 -11 -38 -5 -13 14 10 8 15 15 10 15 -5 0 -3 7 4 15 13 15 30 12 30 -6z
m326 -7 c6 -12 14 -19 17 -15 4 3 7 -2 7 -12 0 -17 -2 -17 -23 3 -13 12 -27
19 -30 15 -4 -3 -7 4 -7 16 0 28 21 23 36 -7z m104 18 c0 -5 -4 -10 -10 -10
-5 0 -10 5 -10 10 0 6 5 10 10 10 6 0 10 -4 10 -10z m-885 -10 c3 -5 1 -10 -4
-10 -6 0 -11 5 -11 10 0 6 2 10 4 10 3 0 8 -4 11 -10z m608 3 c3 -5 -4 -16
-13 -26 -17 -18 -18 -17 -16 7 1 24 19 36 29 19z m681 -14 c-3 -5 -10 -7 -15
-3 -5 3 -7 10 -3 15 3 5 10 7 15 3 5 -3 7 -10 3 -15z m200 0 c-3 -5 -10 -7
-15 -3 -5 3 -7 10 -3 15 3 5 10 7 15 3 5 -3 7 -10 3 -15z m-638 -9 c0 -11 -4
-20 -8 -20 -10 0 -11 24 -1 33 9 9 9 10 9 -13z m-1436 -6 c0 -14 -3 -14 -15
-4 -8 7 -15 14 -15 16 0 2 7 4 15 4 8 0 15 -7 15 -16z m1240 6 c0 -5 -4 -10
-10 -10 -5 0 -10 5 -10 10 0 6 5 10 10 10 6 0 10 -4 10 -10z m-682 -11 c-2 -6
-8 -10 -13 -10 -5 0 -11 4 -13 10 -2 6 4 11 13 11 9 0 15 -5 13 -11z m305 -16
c6 -34 1 -43 -24 -43 -20 0 -23 10 -13 48 9 31 31 28 37 -5z m27 18 c0 -6 -4
-13 -10 -16 -5 -3 -10 1 -10 9 0 9 5 16 10 16 6 0 10 -4 10 -9z m-926 -17 c4
-9 4 -19 2 -21 -8 -8 -26 8 -26 23 0 19 16 18 24 -2z m142 5 c3 -6 0 -15 -7
-20 -10 -6 -6 -9 14 -9 45 0 26 -22 -21 -24 -41 -2 -56 9 -27 20 8 4 15 15 15
25 0 21 15 25 26 8z m600 -6 c18 -24 17 -33 -1 -33 -8 0 -15 4 -15 9 0 5 -3
16 -6 25 -8 21 6 20 22 -1z m-478 -13 c14 -23 8 -40 -13 -40 -16 0 -28 -27
-15 -35 14 -8 30 3 30 21 0 8 7 14 15 14 8 0 15 5 15 10 0 19 18 10 23 -11 4
-16 0 -23 -14 -26 -16 -4 -19 -11 -15 -29 3 -12 2 -26 -4 -29 -21 -13 -8 -24
32 -27 32 -2 44 -8 46 -21 3 -16 -1 -18 -28 -12 -29 6 -31 5 -21 -12 7 -14 7
-23 -1 -31 -18 -18 -28 -14 -28 9 0 18 -4 20 -25 15 -18 -5 -25 -2 -25 8 0 7
-9 16 -20 19 -24 6 -27 27 -3 27 13 0 14 3 5 12 -14 14 -42 -6 -42 -29 0 -8
-6 -13 -12 -10 -7 2 -13 12 -13 23 0 10 -6 24 -12 29 -14 11 -7 55 9 55 5 0
25 11 44 24 32 22 33 24 13 29 -12 3 -18 10 -14 17 4 6 13 9 21 6 8 -3 14 -1
14 4 0 18 25 11 38 -10z m532 0 c-6 -11 -15 -18 -20 -15 -13 8 0 35 16 35 12
0 12 -4 4 -20z m390 -1 c0 -5 -7 -9 -15 -9 -9 0 -12 6 -9 15 6 15 24 11 24 -6z
m444 -10 c-3 -5 -10 -7 -15 -3 -5 3 -7 10 -3 15 3 5 10 7 15 3 5 -3 7 -10 3
-15z m-1068 0 c10 -17 -13 -36 -27 -22 -12 12 -4 33 11 33 5 0 12 -5 16 -11z
m98 -16 c7 -22 7 -33 1 -33 -3 0 -5 3 -4 7 0 3 -6 10 -15 15 -20 11 -21 28 -2
28 8 0 17 -8 20 -17z m-304 -3 c8 -5 11 -12 8 -16 -10 -9 -38 3 -38 16 0 12
10 13 30 0z m660 0 c0 -5 -5 -10 -11 -10 -5 0 -7 5 -4 10 3 6 8 10 11 10 2 0
4 -4 4 -10z m430 -15 c0 -8 -4 -15 -9 -15 -13 0 -22 16 -14 24 11 11 23 6 23
-9z m-1480 -10 c0 -9 6 -12 18 -8 14 5 15 3 5 -8 -7 -7 -13 -20 -13 -28 0 -9
-11 -21 -25 -28 -22 -10 -25 -9 -25 9 0 11 7 26 15 34 8 8 12 21 9 29 -4 8 -1
15 5 15 6 0 11 -7 11 -15z m955 -15 c-5 -8 -11 -8 -17 -2 -6 6 -7 16 -3 22 5
8 11 8 17 2 6 -6 7 -16 3 -22z m1145 20 c0 -5 -7 -10 -16 -10 -8 0 -12 5 -9
10 3 6 10 10 16 10 5 0 9 -4 9 -10z m421 -13 c-13 -13 -26 -3 -16 12 3 6 11 8
17 5 6 -4 6 -10 -1 -17z m-620 0 c-1 -12 -15 -9 -19 4 -3 6 1 10 8 8 6 -3 11
-8 11 -12z m1049 3 c0 -5 -4 -10 -10 -10 -5 0 -10 5 -10 10 0 6 5 10 10 10 6
0 10 -4 10 -10z m-6212 -12 c18 -18 14 -38 -7 -38 -20 0 -35 25 -25 41 7 12
18 11 32 -3z m5282 2 c22 -14 0 -30 -27 -19 -13 4 -23 13 -23 19 0 13 30 13
50 0z m-1900 -26 c0 -8 7 -17 15 -20 23 -9 18 -24 -8 -24 -13 0 -32 -9 -42
-20 -22 -24 -35 -26 -35 -5 0 8 -5 15 -11 15 -6 0 -9 8 -7 18 2 11 13 17 33
17 24 0 31 5 33 23 4 24 22 21 22 -4z m914 -5 c-9 -15 -20 -10 -20 10 0 15 3
17 13 9 7 -6 10 -14 7 -19z m240 22 c3 -5 -4 -11 -17 -15 -39 -10 -53 -6 -27
8 31 17 37 18 44 7z m336 -6 c10 -13 9 -15 -9 -15 -12 0 -21 6 -21 15 0 8 4
15 9 15 5 0 14 -7 21 -15z m-967 -17 c4 -12 4 -25 1 -28 -8 -7 -34 31 -28 41
9 16 22 10 27 -13z m1317 3 c0 -13 -9 -21 -28 -26 -25 -5 -28 -10 -24 -35 2
-17 0 -30 -6 -30 -14 0 -18 8 -26 45 -5 27 -2 32 27 46 44 22 57 22 57 0z
m170 9 c0 -5 -4 -10 -10 -10 -5 0 -10 5 -10 10 0 6 5 10 10 10 6 0 10 -4 10
-10z m320 0 c0 -5 -5 -10 -11 -10 -5 0 -7 5 -4 10 3 6 8 10 11 10 2 0 4 -4 4
-10z m-1530 -22 c0 6 7 12 17 12 14 0 14 -2 -2 -20 -23 -25 -41 -26 -48 -1 -7
27 3 34 19 13 8 -10 13 -12 14 -4z m177 -14 c-12 -12 -37 5 -30 21 5 15 7 15
21 1 9 -9 13 -18 9 -22z m-347 16 c0 -5 -4 -10 -10 -10 -5 0 -10 5 -10 10 0 6
5 10 10 10 6 0 10 -4 10 -10z m2515 0 c3 -5 1 -10 -4 -10 -6 0 -11 5 -11 10 0
6 2 10 4 10 3 0 8 -4 11 -10z m-3818 -22 c-3 -8 -6 -5 -6 6 -1 11 2 17 5 13 3
-3 4 -12 1 -19z m953 12 c0 -5 -2 -10 -4 -10 -3 0 -8 5 -11 10 -3 6 -1 10 4
10 6 0 11 -4 11 -10z m2600 -6 c0 -8 -5 -12 -10 -9 -6 4 -8 11 -5 16 9 14 15
11 15 -7z m-2148 -14 c10 0 18 -4 18 -10 0 -11 -6 -12 -37 -4 -13 4 -23 13
-23 22 0 12 3 13 12 4 7 -7 20 -12 30 -12z m-857 -24 c-20 -30 -35 -34 -35 -8
0 11 10 24 23 29 29 14 32 10 12 -21z m3352 17 c3 -7 -4 -9 -16 -6 -12 3 -18
9 -15 15 7 11 26 6 31 -9z m-2693 -20 c16 21 32 22 39 2 7 -16 -8 -29 -23 -20
-5 3 -10 2 -10 -3 0 -5 -13 -8 -29 -7 -26 1 -30 -2 -33 -32 -4 -32 1 -40 16
-26 4 4 20 8 36 9 26 1 27 0 17 -17 -7 -11 -21 -22 -31 -25 -18 -6 -18 -7 -3
-19 9 -7 17 -21 17 -31 0 -38 15 -44 35 -14 11 17 23 30 26 30 12 0 51 -49 45
-58 -3 -5 -16 -7 -28 -5 -17 3 -26 -3 -35 -21 -6 -15 -7 -28 -2 -32 15 -9 10
-54 -6 -54 -8 0 -15 9 -15 20 0 31 -15 23 -29 -15 -9 -27 -10 -39 -1 -50 8 -9
8 -15 0 -20 -23 -14 -40 4 -40 44 l0 40 -54 -6 c-56 -6 -57 -5 -71 55 -8 33
-16 42 -34 42 -11 0 -23 -4 -26 -10 -9 -14 -22 -12 -29 5 -7 20 22 47 45 40
11 -4 19 -2 19 4 0 14 -23 14 -55 -1 -22 -10 -28 -9 -36 3 -7 11 -9 9 -9 -8 0
-14 -6 -23 -15 -23 -8 0 -15 9 -15 19 0 11 -13 28 -30 38 -33 19 -35 25 -20
54 10 18 13 18 46 4 34 -14 35 -14 44 10 11 30 40 33 40 5 0 -26 14 -25 32 2
14 21 14 21 56 3 29 -13 43 -26 47 -44 5 -25 48 -55 60 -43 14 14 3 32 -20 32
-28 0 -33 15 -8 24 15 6 15 8 0 19 -25 19 -12 95 17 99 12 2 29 -6 38 -17 17
-19 19 -19 32 -2z m1336 7 c0 -5 -4 -10 -10 -10 -5 0 -10 5 -10 10 0 6 5 10
10 10 6 0 10 -4 10 -10z m410 -2 c0 -19 -18 -43 -25 -36 -4 3 -2 16 5 27 12
24 20 27 20 9z m-1220 -18 c-26 -20 -40 -25 -40 -14 0 11 34 33 50 33 10 1 6
-6 -10 -19z m1940 10 c0 -12 -28 -25 -36 -17 -9 9 6 27 22 27 8 0 14 -5 14
-10z m-3010 -10 c0 -5 -4 -10 -10 -10 -5 0 -10 5 -10 10 0 6 5 10 10 10 6 0
10 -4 10 -10z m870 -5 c0 -8 -7 -15 -15 -15 -8 0 -15 7 -15 15 0 8 7 15 15 15
8 0 15 -7 15 -15z m-525 -5 c3 -5 1 -10 -4 -10 -6 0 -11 5 -11 10 0 6 2 10 4
10 3 0 8 -4 11 -10z m455 0 c0 -5 -7 -10 -16 -10 -8 0 -12 5 -9 10 3 6 10 10
16 10 5 0 9 -4 9 -10z m-150 -15 c0 -8 -4 -15 -10 -15 -5 0 -10 7 -10 15 0 8
5 15 10 15 6 0 10 -7 10 -15z m-737 -15 c-3 -11 -7 -20 -9 -20 -2 0 -4 9 -4
20 0 11 4 20 9 20 5 0 7 -9 4 -20z m969 -8 c-6 -2 -8 -17 -5 -38 7 -41 -13
-47 -28 -8 -12 33 -4 62 19 66 19 4 32 -14 14 -20z m348 24 c0 -11 -19 -15
-25 -6 -3 5 1 10 9 10 9 0 16 -2 16 -4z m-1368 -21 c0 -5 -5 -11 -11 -13 -6
-2 -11 4 -11 13 0 9 5 15 11 13 6 -2 11 -8 11 -13z m118 5 c0 -5 -4 -10 -10
-10 -5 0 -10 5 -10 10 0 6 5 10 10 10 6 0 10 -4 10 -10z m152 -12 c4 -28 -23
-89 -37 -84 -5 2 -8 10 -6 17 2 8 5 30 6 49 4 43 2 40 19 40 8 0 16 -10 18
-22z m2705 3 c14 -23 9 -31 -18 -24 -19 5 -25 23 -12 36 10 11 17 8 30 -12z
m-1896 -14 c-13 -13 -26 -3 -16 12 3 6 11 8 17 5 6 -4 6 -10 -1 -17z m1649 13
c0 -5 -4 -10 -10 -10 -5 0 -10 5 -10 10 0 6 5 10 10 10 6 0 10 -4 10 -10z
m-1990 -10 c0 -5 -4 -10 -10 -10 -5 0 -10 5 -10 10 0 6 5 10 10 10 6 0 10 -4
10 -10z m1670 0 c0 -5 -2 -10 -4 -10 -3 0 -8 5 -11 10 -3 6 -1 10 4 10 6 0 11
-4 11 -10z m-2307 -15 c7 -16 -8 -29 -23 -20 -15 9 -12 35 4 35 8 0 16 -7 19
-15z m82 5 c3 -5 -3 -10 -14 -10 -11 0 -23 5 -26 10 -3 6 3 10 14 10 11 0 23
-4 26 -10z m1831 -26 c-4 -12 -10 -14 -17 -7 -5 5 -7 17 -3 27 4 12 10 14 17
7 5 -5 7 -17 3 -27z m-1976 10 c0 -8 -4 -13 -9 -9 -5 3 -16 -2 -24 -10 -17
-17 -37 -20 -37 -6 0 12 21 28 45 34 11 2 21 5 23 6 1 0 2 -6 2 -15z m750 6
c0 -5 -4 -10 -10 -10 -5 0 -10 5 -10 10 0 6 5 10 10 10 6 0 10 -4 10 -10z
m517 -7 c-9 -9 -19 -14 -23 -11 -10 10 6 28 24 28 15 0 15 -1 -1 -17z m-380
-13 c8 -12 9 -21 3 -25 -6 -4 -13 1 -16 9 -8 21 -31 20 -43 -1 -7 -14 -13 -15
-21 -6 -9 8 -5 15 16 27 38 20 47 20 61 -4z m143 5 c0 -8 -4 -15 -9 -15 -13 0
-22 16 -14 24 11 11 23 6 23 -9z m17 -7 c-3 -8 -6 -5 -6 6 -1 11 2 17 5 13 3
-3 4 -12 1 -19z m505 7 c0 -5 -5 -11 -11 -13 -6 -2 -11 4 -11 13 0 9 5 15 11
13 6 -2 11 -8 11 -13z m489 -7 c1 -13 1 -28 0 -34 -1 -7 5 -14 14 -18 21 -8
19 -38 -2 -34 -10 2 -17 10 -15 17 1 7 -4 18 -12 25 -11 9 -16 47 -7 64 6 11
21 -3 22 -20z m805 -16 c-9 -9 -37 8 -31 18 5 8 11 7 21 -1 8 -6 12 -14 10
-17z m-1906 8 c0 -5 -4 -10 -10 -10 -5 0 -10 5 -10 10 0 6 5 10 10 10 6 0 10
-4 10 -10z m275 0 c3 -5 1 -10 -4 -10 -6 0 -11 5 -11 10 0 6 2 10 4 10 3 0 8
-4 11 -10z m1475 0 c0 -5 -5 -10 -11 -10 -5 0 -7 5 -4 10 3 6 8 10 11 10 2 0
4 -4 4 -10z m30 0 c0 -5 -4 -10 -10 -10 -5 0 -10 5 -10 10 0 6 5 10 10 10 6 0
10 -4 10 -10z m245 0 c3 -5 1 -10 -4 -10 -6 0 -11 5 -11 10 0 6 2 10 4 10 3 0
8 -4 11 -10z m-185 -4 c0 -3 -4 -8 -10 -11 -5 -3 -10 -1 -10 4 0 6 5 11 10 11
6 0 10 -2 10 -4z m-1100 -27 c0 -5 -7 -9 -15 -9 -15 0 -20 12 -9 23 8 8 24 -1
24 -14z m970 11 c0 -5 -4 -10 -10 -10 -5 0 -10 5 -10 10 0 6 5 10 10 10 6 0
10 -4 10 -10z m445 -1 c10 -15 -1 -23 -20 -15 -9 3 -13 10 -10 16 8 13 22 13
30 -1z m-2973 -14 c0 -5 -5 -11 -11 -13 -6 -2 -11 4 -11 13 0 9 5 15 11 13 6
-2 11 -8 11 -13z m1178 0 c0 -8 -7 -15 -15 -15 -16 0 -20 12 -8 23 11 12 23 8
23 -8z m328 -3 c2 -7 -3 -12 -12 -12 -9 0 -16 7 -16 16 0 17 22 14 28 -4z
m-1376 -23 c-4 -38 -19 -46 -42 -21 -25 27 -25 32 0 32 11 0 20 5 20 11 0 6 6
9 13 6 6 -2 11 -15 9 -28z m673 17 c7 3 16 1 19 -4 3 -6 15 -8 26 -5 14 4 20
0 20 -11 0 -9 5 -16 10 -16 6 0 10 -4 10 -9 0 -18 -27 -18 -64 0 -56 27 -76 9
-34 -31 l22 -20 -42 3 c-24 3 -45 7 -49 10 -3 4 -16 4 -28 1 -33 -8 -41 14
-11 28 14 6 26 15 26 20 0 4 6 8 13 8 8 0 22 9 32 20 12 13 22 17 28 11 5 -5
15 -7 22 -5z m-925 -6 c0 -5 -5 -10 -11 -10 -5 0 -7 5 -4 10 3 6 8 10 11 10 2
0 4 -4 4 -10z m160 0 c0 -5 -4 -10 -10 -10 -5 0 -10 5 -10 10 0 6 5 10 10 10
6 0 10 -4 10 -10z m1060 0 c0 -5 -5 -10 -11 -10 -5 0 -7 5 -4 10 3 6 8 10 11
10 2 0 4 -4 4 -10z m-1252 -28 c-4 -28 11 -52 32 -52 23 0 8 -21 -20 -26 -17
-4 -30 -13 -30 -21 0 -13 -3 -13 -15 -3 -22 18 -18 37 8 45 17 6 19 8 6 12
-17 4 -29 39 -21 61 2 7 13 12 24 12 17 0 20 -5 16 -28z m82 8 c-32 -25 -40
-25 -40 0 0 16 7 20 33 20 l32 0 -25 -20z m2100 5 c0 -8 -4 -15 -10 -15 -5 0
-10 7 -10 15 0 8 5 15 10 15 6 0 10 -7 10 -15z m-1060 -5 c0 -5 -2 -10 -4 -10
-3 0 -8 5 -11 10 -3 6 -1 10 4 10 6 0 11 -4 11 -10z m97 -15 c8 -17 8 -27 1
-32 -12 -7 -38 23 -38 44 0 22 24 14 37 -12z m-1037 -10 c0 -8 -4 -15 -10 -15
-5 0 -10 7 -10 15 0 8 5 15 10 15 6 0 10 -7 10 -15z m172 -5 c10 0 18 -4 18
-9 0 -5 3 -16 6 -25 4 -11 1 -16 -10 -16 -11 0 -16 -9 -16 -30 0 -16 -4 -30
-10 -30 -17 0 -11 -27 7 -34 10 -4 20 -1 25 9 5 8 13 13 19 10 13 -9 11 -25
-3 -25 -19 0 -38 -46 -25 -59 7 -7 5 -12 -7 -17 -18 -7 -40 8 -42 29 0 7 -2
20 -2 31 -1 12 -7 16 -17 13 -22 -9 -28 10 -11 35 9 12 16 30 16 40 0 10 10
20 25 24 14 3 25 9 25 13 0 12 -19 36 -30 37 -20 3 -21 4 -14 15 4 8 9 8 17 0
6 -6 19 -11 29 -11z m1110 5 c0 -5 -5 -11 -11 -13 -6 -2 -11 4 -11 13 0 9 5
15 11 13 6 -2 11 -8 11 -13z m747 -9 c8 -10 9 -16 1 -21 -13 -8 -30 3 -30 21
0 18 14 18 29 0z m521 4 c0 -5 -5 -10 -11 -10 -5 0 -7 5 -4 10 3 6 8 10 11 10
2 0 4 -4 4 -10z m190 0 c0 -5 -4 -10 -10 -10 -5 0 -10 5 -10 10 0 6 5 10 10
10 6 0 10 -4 10 -10z m-2115 -38 c-3 -9 3 -10 19 -6 13 3 27 1 30 -4 8 -14
-22 -24 -47 -16 -15 5 -19 3 -14 -10 3 -8 2 -18 -3 -21 -6 -4 -10 4 -10 17 -1
23 -1 23 -13 2 -16 -28 -37 -19 -37 16 0 36 36 63 62 46 10 -6 16 -17 13 -24z
m375 -9 c0 -21 -3 -22 -20 -13 -19 10 -27 40 -13 53 11 12 33 -14 33 -40z
m977 31 c8 -21 -13 -42 -28 -27 -13 13 -5 43 11 43 6 0 13 -7 17 -16z m-91 -5
c3 -6 2 -15 -2 -19 -12 -12 -38 5 -30 19 9 14 23 14 32 0z m223 -11 c5 -13 5
-28 0 -34 -5 -6 -6 -19 -3 -29 5 -13 3 -16 -7 -13 -8 3 -14 10 -14 17 0 6 -6
16 -14 21 -12 7 -13 13 -3 34 14 32 30 33 41 4z m891 12 c0 -5 -4 -10 -10 -10
-5 0 -10 5 -10 10 0 6 5 10 10 10 6 0 10 -4 10 -10z m-220 -10 c0 -5 -5 -10
-11 -10 -5 0 -7 5 -4 10 3 6 8 10 11 10 2 0 4 -4 4 -10z m-2540 -10 c0 -5 -5
-10 -11 -10 -5 0 -7 5 -4 10 3 6 8 10 11 10 2 0 4 -4 4 -10z m618 -26 c14 -10
13 -15 -6 -38 -11 -15 -18 -34 -15 -42 3 -9 -2 -14 -16 -14 -12 0 -21 4 -21
10 0 5 8 6 18 3 14 -6 15 -4 4 9 -8 10 -9 18 -3 22 5 4 8 21 6 38 -4 34 5 62
13 38 3 -8 12 -20 20 -26z m1327 27 c7 -12 -12 -24 -25 -16 -11 7 -4 25 10 25
5 0 11 -4 15 -9z m81 -18 c-2 -16 -8 -28 -15 -28 -12 0 -13 1 -5 33 9 31 23
28 20 -5z m-2226 -3 c0 -5 -4 -10 -10 -10 -5 0 -10 5 -10 10 0 6 5 10 10 10 6
0 10 -4 10 -10z m43 -5 c8 -18 -11 -31 -25 -17 -11 11 -3 32 12 32 4 0 10 -7
13 -15z m-783 -5 c0 -5 -4 -10 -10 -10 -5 0 -10 5 -10 10 0 6 5 10 10 10 6 0
10 -4 10 -10z m1490 -25 c0 -19 -4 -35 -9 -35 -13 0 -24 34 -12 38 6 2 11 10
11 18 0 8 2 14 5 14 3 0 5 -16 5 -35z m1130 20 c0 -8 -7 -15 -15 -15 -8 0 -15
7 -15 15 0 8 7 15 15 15 8 0 15 -7 15 -15z m244 6 c3 -5 -1 -14 -8 -20 -16
-13 -32 2 -21 19 8 12 22 13 29 1z m526 -1 c0 -5 -4 -10 -10 -10 -5 0 -10 5
-10 10 0 6 5 10 10 10 6 0 10 -4 10 -10z m110 0 c0 -5 -2 -10 -4 -10 -3 0 -8
5 -11 10 -3 6 -1 10 4 10 6 0 11 -4 11 -10z m-6670 -26 c0 -8 -9 -14 -20 -14
-22 0 -26 10 -8 28 13 13 28 7 28 -14z m4174 9 c3 -10 9 -24 12 -30 3 -8 -1
-13 -10 -13 -9 0 -16 6 -16 14 0 8 -5 16 -12 18 -6 2 -8 10 -4 16 10 17 23 15
30 -5z m633 -19 c4 5 2 11 -4 13 -23 8 -13 20 17 21 20 0 30 -4 30 -14 0 -8
-5 -14 -11 -14 -5 0 -8 -4 -5 -9 3 -5 -1 -15 -10 -22 -13 -10 -19 -10 -37 0
-12 8 -22 10 -24 5 -8 -22 -22 -36 -32 -33 -8 3 -5 12 9 26 11 12 20 32 20 45
l0 23 20 -25 c10 -14 22 -21 27 -16z m393 6 c0 -5 -5 -10 -11 -10 -5 0 -7 5
-4 10 3 6 8 10 11 10 2 0 4 -4 4 -10z m1420 0 c0 -5 -5 -10 -11 -10 -5 0 -7 5
-4 10 3 6 8 10 11 10 2 0 4 -4 4 -10z m-2910 -10 c0 -5 -4 -10 -10 -10 -5 0
-10 5 -10 10 0 6 5 10 10 10 6 0 10 -4 10 -10z m140 0 c0 -5 -4 -10 -10 -10
-5 0 -10 5 -10 10 0 6 5 10 10 10 6 0 10 -4 10 -10z m411 -22 c0 -30 1 -31 9
-10 12 30 19 28 32 -8 7 -22 18 -33 39 -37 16 -3 29 -11 29 -19 0 -7 10 -16
23 -20 12 -4 25 -12 29 -18 5 -6 8 -2 8 12 0 31 24 28 39 -5 11 -24 10 -29
-11 -45 -13 -10 -31 -16 -40 -14 -13 3 -18 -2 -18 -19 0 -15 -8 -26 -20 -30
-19 -6 -26 -25 -14 -38 7 -7 34 15 28 24 -2 4 6 15 18 25 14 13 22 15 25 7 2
-7 10 -10 18 -7 7 3 16 1 20 -5 4 -8 12 -8 26 -1 21 12 26 55 7 64 -10 5 -10
7 0 12 6 3 12 14 12 25 0 25 27 25 35 -1 3 -11 11 -20 16 -20 5 0 13 -10 18
-22 8 -21 9 -20 16 14 10 50 1 68 -31 68 -23 0 -26 3 -22 25 3 14 1 25 -3 25
-5 0 -9 3 -9 8 0 4 23 5 51 3 38 -2 49 -6 45 -17 -3 -9 2 -14 14 -14 14 0 20
-7 20 -21 0 -17 3 -19 13 -10 8 6 16 9 19 6 3 -3 11 1 18 10 23 28 32 16 28
-39 -3 -54 -3 -54 23 -49 20 4 27 -1 37 -23 8 -15 9 -31 4 -36 -10 -10 -42 0
-42 13 0 5 -9 9 -20 9 -11 0 -20 6 -20 14 0 24 -21 30 -27 7 -3 -12 -9 -22
-14 -22 -20 -3 -25 -5 -37 -12 -7 -5 -11 -16 -8 -25 3 -10 8 -38 11 -64 8 -56
-3 -65 -60 -49 -20 5 -46 6 -57 2 -19 -7 -18 -8 11 -20 17 -8 31 -17 31 -22 0
-5 7 -9 15 -9 8 0 15 -6 15 -14 0 -23 -18 -28 -29 -9 -5 10 -13 15 -17 11 -4
-4 -1 -15 6 -23 16 -19 23 -115 8 -115 -22 0 -48 22 -48 40 0 11 -5 20 -11 20
-6 0 -9 16 -8 38 2 21 0 42 -4 48 -8 14 -53 6 -68 -12 -6 -8 -17 -14 -24 -14
-6 0 -11 -9 -10 -20 1 -21 15 -41 15 -22 0 15 27 16 36 1 3 -6 1 -16 -5 -22
-6 -6 -11 -18 -11 -27 0 -21 -34 -53 -45 -43 -4 5 -5 0 -2 -10 10 -27 -42 -45
-60 -21 -27 37 -3 65 30 36 15 -14 17 -13 17 1 0 8 2 22 6 30 7 19 -48 30 -80
16 -18 -8 -24 -19 -23 -38 2 -24 -1 -26 -31 -23 -19 2 -38 -3 -48 -12 -8 -9
-12 -16 -7 -17 4 0 20 -2 35 -3 15 -1 33 -7 40 -14 17 -17 -2 -67 -27 -68 -59
-3 -58 -2 -51 -37 5 -25 1 -38 -14 -55 -25 -27 -25 -39 0 -52 11 -6 20 -16 20
-23 1 -7 9 -22 19 -34 21 -25 71 -32 71 -9 0 7 7 19 15 26 24 20 17 29 -22 28
-21 0 -44 0 -50 1 -18 1 -16 30 2 37 8 4 15 17 15 30 0 26 31 46 38 26 2 -8
15 -10 37 -6 20 3 35 1 40 -5 8 -14 -13 -83 -29 -93 -8 -5 -7 -8 2 -8 6 0 12
-11 12 -25 0 -14 4 -25 9 -25 5 0 11 -9 14 -20 4 -14 10 -18 22 -14 9 4 20 2
24 -3 3 -5 22 -8 42 -5 26 3 40 11 47 27 10 22 9 23 -23 19 -19 -2 -37 1 -40
7 -4 6 -19 7 -36 4 -26 -6 -29 -4 -28 17 1 13 -2 35 -6 51 -7 26 0 33 28 28
12 -2 8 22 -7 42 -12 16 -28 23 -58 26 -5 1 -8 15 -8 32 0 16 -4 28 -9 25 -13
-8 -34 21 -27 39 11 31 52 16 47 -17 -2 -14 22 -9 40 8 10 9 25 14 33 11 13
-5 35 -87 39 -147 1 -14 6 -30 10 -37 4 -6 3 -14 -3 -18 -22 -13 -10 -37 18
-35 43 3 52 1 52 -14 0 -8 7 -16 15 -20 8 -3 15 -12 15 -21 0 -8 4 -15 9 -15
5 0 9 13 9 30 -1 21 -7 31 -22 36 -31 9 -56 34 -56 56 0 10 -4 18 -10 18 -19
0 -10 32 10 37 11 3 20 11 20 19 0 19 65 47 89 39 21 -6 30 -35 10 -35 -5 0
-7 -5 -3 -12 4 -6 0 -16 -8 -22 -8 -6 -17 -19 -21 -29 -5 -14 -2 -16 17 -11
13 3 26 1 30 -4 8 -13 56 -2 56 13 0 7 -13 18 -30 24 -36 12 -37 17 -5 47 28
26 33 54 10 54 -8 0 -15 5 -15 10 0 6 -11 8 -25 4 -14 -3 -25 -2 -26 2 0 5 -2
21 -4 37 -4 27 17 39 30 17 11 -18 22 -10 29 20 3 17 10 30 16 30 12 0 13 -40
1 -59 -6 -9 -3 -19 9 -31 23 -23 50 -22 47 4 -3 26 29 34 36 9 4 -14 5 -13 6
5 0 12 7 22 15 22 21 0 30 -20 17 -33 -6 -6 -11 -20 -11 -30 0 -11 -8 -26 -17
-34 -16 -13 -15 -14 15 -10 29 3 35 0 44 -22 9 -21 12 -23 15 -9 3 10 15 21
28 24 13 3 25 13 27 22 6 28 -15 72 -34 72 -20 0 -31 15 -34 49 -3 44 6 60 39
69 25 7 31 14 30 31 -2 12 4 24 12 27 8 4 15 12 15 20 0 8 6 14 14 14 8 0 17
13 21 29 7 35 29 55 49 48 8 -3 17 1 20 9 7 19 36 18 36 -1 0 -18 17 -20 23
-2 2 6 8 9 12 5 5 -4 -5 -20 -20 -34 -23 -21 -35 -25 -66 -21 l-37 5 9 -32 c5
-17 9 -32 9 -33 0 -2 9 -3 20 -3 11 0 20 -4 20 -9 0 -14 -21 -25 -29 -15 -9
13 -61 15 -61 3 0 -6 4 -8 9 -5 5 3 12 -1 15 -10 5 -12 2 -15 -12 -12 -14 4
-18 -1 -17 -26 0 -25 5 -32 23 -34 12 -2 28 -12 34 -22 8 -12 16 -16 23 -10
14 12 40 -5 30 -20 -4 -6 -15 -10 -24 -7 -10 2 -26 -2 -36 -9 -10 -8 -17 -14
-14 -15 61 -9 74 -8 94 11 31 29 59 17 51 -22 -5 -26 -3 -29 12 -23 9 3 21 7
27 8 15 3 41 30 48 50 10 27 32 15 33 -19 3 -51 -5 -66 -32 -61 -16 3 -23 0
-21 -7 2 -6 18 -10 35 -8 29 3 32 0 32 -23 0 -14 7 -28 15 -31 21 -9 95 -120
95 -145 0 -12 8 -23 20 -26 23 -6 26 -23 8 -42 -11 -10 -10 -15 5 -25 25 -19
22 -46 -5 -46 -21 -1 -22 -2 -5 -14 23 -18 22 -24 -10 -53 -24 -23 -25 -28
-15 -58 10 -26 9 -39 -4 -71 -32 -81 -57 -130 -80 -161 -13 -17 -24 -45 -24
-62 0 -16 -4 -32 -10 -36 -5 -3 -7 -12 -3 -20 3 -9 -2 -26 -11 -40 -9 -14 -14
-30 -11 -36 4 -5 3 -18 -1 -27 -4 -9 -6 -29 -5 -43 3 -35 -21 -54 -49 -39 -18
10 -25 8 -40 -8 -21 -23 -17 -32 16 -32 31 0 40 -31 14 -52 -19 -16 -20 -17
-3 -27 14 -8 15 -11 3 -11 -10 -1 -8 -4 5 -9 12 -5 25 -4 33 2 22 17 65 -9 60
-36 -3 -13 0 -27 6 -33 22 -19 71 -48 79 -46 4 1 7 -2 7 -7 0 -5 9 -7 20 -4
11 3 20 14 20 24 0 11 4 19 8 19 13 0 65 127 57 140 -4 6 1 20 11 31 10 11 12
19 6 19 -7 0 -12 7 -12 15 0 8 -6 15 -14 15 -8 0 -18 5 -21 10 -8 13 14 42 25
35 5 -3 11 4 15 15 3 11 10 20 14 20 21 0 71 -33 71 -47 0 -12 -9 -14 -42 -9
-33 5 -38 4 -21 -4 21 -8 22 -14 16 -57 -3 -26 -12 -57 -19 -68 -13 -21 -34
-93 -39 -135 -2 -14 -9 -44 -16 -67 -11 -35 -11 -56 0 -115 7 -40 16 -99 18
-130 4 -45 10 -59 24 -63 21 -7 26 -34 7 -36 -7 -1 -20 -2 -28 -3 -23 -2 -21
-100 3 -115 19 -12 31 2 25 29 -5 23 29 23 35 1 4 -15 17 -22 56 -27 34 -4 51
-11 51 -21 0 -18 -25 -27 -47 -18 -32 13 -61 14 -78 1 -14 -10 -15 -17 -6 -34
26 -48 -48 -88 -77 -42 -11 17 -15 18 -35 8 -12 -7 -23 -14 -25 -14 -6 -3 24
-60 35 -67 7 -4 13 -15 13 -22 0 -8 6 -15 13 -15 24 0 37 -36 25 -71 -9 -25
-8 -34 0 -37 20 -6 14 -35 -5 -29 -32 9 -38 9 -62 8 -23 -1 -23 -2 -7 -20 20
-22 15 -50 -14 -76 -11 -10 -20 -27 -20 -38 0 -10 -13 -39 -30 -64 -30 -44
-39 -86 -20 -98 20 -12 10 -45 -15 -51 -28 -7 -31 -15 -13 -44 10 -15 10 -25
2 -37 -9 -14 -6 -21 10 -35 l21 -18 -23 -19 c-16 -14 -22 -29 -21 -53 1 -18
-2 -60 -6 -93 -4 -33 -7 -66 -8 -72 0 -7 -3 -13 -6 -13 -3 0 -7 -11 -7 -25 -1
-14 2 -25 8 -25 5 0 8 -8 6 -18 -2 -10 9 -34 24 -54 39 -51 27 -63 -67 -72
-75 -7 -72 -6 -49 -16 21 -8 40 -50 23 -50 -5 0 -9 7 -9 15 0 8 -4 15 -10 15
-5 0 -10 -7 -10 -15 0 -8 -7 -15 -15 -15 -8 0 -15 -5 -15 -11 0 -5 -5 -7 -10
-4 -6 4 -17 2 -25 -5 -9 -7 -15 -8 -20 -1 -6 10 -19 6 -65 -21 -8 -4 -27 -14
-43 -21 -15 -7 -24 -16 -20 -20 3 -4 1 -7 -6 -7 -7 0 -9 -9 -6 -22 3 -13 7
-39 9 -58 5 -42 26 -91 36 -85 5 3 7 -11 5 -30 -2 -22 1 -35 8 -35 7 0 6 -4
-3 -10 -13 -8 -13 -11 -1 -19 7 -5 11 -14 7 -20 -4 -7 -1 -9 8 -5 11 4 13 0 9
-18 -3 -16 -2 -19 5 -10 7 11 11 8 15 -10 8 -31 53 -54 61 -32 4 9 15 14 28
12 19 -2 23 -9 22 -40 -1 -28 3 -38 18 -41 16 -5 17 -3 6 10 -11 14 -8 14 20
-1 22 -11 35 -26 38 -45 3 -16 23 -46 45 -67 21 -22 38 -45 39 -51 0 -7 5 -13
11 -13 5 0 7 -5 3 -12 -4 -6 -3 -9 2 -6 14 9 54 -10 54 -25 0 -7 17 -19 38
-27 20 -7 42 -20 49 -29 9 -12 12 -13 13 -2 0 9 10 12 37 9 29 -4 43 1 63 19
23 21 25 21 32 5 10 -26 9 -32 -7 -32 -8 0 -15 -9 -15 -19 0 -11 -9 -23 -20
-26 -27 -9 -46 -43 -31 -58 6 -6 11 -21 11 -33 0 -28 26 -50 56 -46 15 2 24
-2 24 -10 0 -7 14 -28 30 -47 37 -42 25 -69 -14 -32 -15 14 -33 22 -44 19 -15
-4 -18 -1 -15 13 8 31 -50 26 -71 -6 -18 -28 -36 -33 -36 -10 0 8 -4 15 -9 15
-15 0 -24 -41 -12 -53 15 -15 14 -27 -3 -27 -21 0 -30 -19 -17 -34 9 -10 7
-15 -9 -19 -16 -4 -20 -13 -20 -44 0 -21 7 -49 16 -62 20 -28 4 -52 -23 -35
-14 9 -21 4 -40 -23 -28 -41 -29 -63 -3 -63 10 0 23 -6 27 -13 4 -8 16 -16 26
-20 11 -4 17 -17 17 -37 0 -16 1 -33 2 -37 2 -11 -29 -16 -58 -9 -13 4 -24 13
-24 20 0 25 -54 3 -61 -25 -6 -27 -1 -49 11 -49 5 0 20 -4 34 -10 23 -9 25
-12 14 -35 -7 -15 -24 -28 -42 -33 -29 -8 -32 -12 -38 -65 -4 -31 -19 -94 -33
-140 -14 -46 -25 -97 -25 -114 0 -18 -4 -34 -9 -37 -5 -3 -12 -34 -16 -68 -9
-85 -30 -148 -80 -239 -23 -42 -66 -125 -94 -185 -91 -191 -283 -499 -342
-548 -43 -37 -106 -66 -139 -64 -23 1 -24 1 -2 5 26 5 30 25 5 22 -33 -5 -78
11 -91 32 -11 18 -11 24 2 38 19 21 21 38 4 23 -17 -14 -87 -17 -117 -5 -26
10 -83 5 -76 -7 3 -4 -2 -11 -10 -14 -10 -4 -19 2 -24 16 -4 12 -10 17 -14 11
-3 -5 11 -27 31 -48 24 -24 29 -34 15 -27 -48 26 -146 173 -222 331 -26 55
-65 185 -81 271 -12 64 -53 206 -71 245 -36 79 -49 243 -35 447 6 92 4 134 -8
195 -22 106 -35 331 -24 423 17 153 18 228 2 234 -8 3 -14 17 -14 31 0 21 6
27 32 32 29 6 30 7 10 14 -27 10 -29 29 -3 36 32 8 38 63 7 63 -7 0 -17 5 -23
11 -16 16 19 89 51 106 30 16 38 41 33 103 -4 37 -9 46 -31 53 -31 10 -30 30
1 35 12 2 23 13 26 24 7 27 -3 45 -14 27 -13 -21 -42 1 -52 40 -10 39 -1 53
17 28 14 -19 36 -23 36 -7 0 6 -9 19 -21 31 -15 15 -27 19 -50 14 -32 -7 -69
15 -69 42 0 7 -4 21 -9 31 -48 95 -48 142 0 142 25 0 24 8 -3 37 -17 18 -19
26 -10 35 10 10 19 6 43 -20 28 -30 30 -36 19 -61 -13 -33 -5 -77 17 -85 12
-5 13 -9 3 -21 -6 -7 -18 -11 -26 -8 -12 4 -14 0 -8 -23 9 -38 9 -38 33 -22
17 10 25 10 41 0 27 -16 30 -15 30 8 0 11 7 20 15 20 8 0 15 5 15 10 0 6 -7
10 -15 10 -8 0 -15 6 -15 14 0 8 7 16 15 20 23 9 18 50 -11 81 -25 27 -25 29
-9 42 17 12 17 16 -10 78 -15 36 -31 68 -36 71 -5 3 -9 16 -9 30 0 24 -14 32
-25 14 -10 -16 -23 -12 -36 12 -10 19 -8 25 13 42 14 12 33 43 42 71 9 27 28
61 43 77 24 25 25 30 13 58 -7 16 -19 30 -26 30 -8 0 -14 6 -14 14 0 10 13 16
41 18 l41 3 25 80 c13 44 25 95 26 113 2 20 11 38 25 48 12 8 22 20 22 25 0 6
14 31 32 55 22 30 38 44 49 41 14 -4 18 5 24 39 4 30 11 44 22 44 10 0 14 -6
10 -20 -5 -21 7 -28 18 -10 21 34 65 -17 47 -54 -19 -39 -20 -78 -3 -117 10
-22 21 -36 24 -33 3 4 -1 20 -9 36 -11 21 -12 33 -4 42 5 8 8 21 4 30 -7 19
12 46 32 46 8 0 14 -7 14 -15 0 -8 5 -15 10 -15 6 0 10 -9 10 -19 0 -45 22
-67 34 -33 27 78 36 111 36 133 0 15 7 32 16 39 8 7 14 23 13 34 -3 38 1 46
20 46 11 0 22 9 26 20 8 26 -3 44 -19 31 -14 -12 -57 -3 -69 13 -12 18 -38
-24 -35 -59 1 -17 -2 -36 -6 -43 -10 -17 -51 -15 -66 3 -11 13 -9 20 13 43 15
16 27 32 27 38 0 5 9 20 19 34 15 19 22 22 33 13 11 -10 24 -3 61 28 26 22 47
37 47 33 0 -19 27 34 33 63 4 22 2 37 -9 48 -20 19 -34 19 -34 0 0 -8 -9 -15
-20 -15 -25 0 -27 28 -2 37 28 11 32 25 10 43 -19 15 -19 17 -4 33 14 14 15
20 4 37 -7 11 -20 23 -29 25 -9 3 -22 18 -29 34 -6 16 -20 32 -30 37 -10 5
-58 45 -106 89 -86 79 -107 88 -129 58 -10 -13 -13 -13 -26 -1 -8 8 -23 19
-34 25 -28 16 -32 83 -4 90 19 5 19 6 -4 22 -199 132 -223 155 -264 248 -22
50 -32 63 -53 65 -31 4 -37 44 -6 41 16 -1 18 4 13 42 -8 52 -46 139 -80 180
-25 29 -26 29 -40 11 -8 -10 -19 -16 -25 -12 -17 10 -15 36 3 36 21 0 9 48
-17 73 -25 25 -20 61 10 65 12 2 23 -1 23 -7 1 -6 3 -15 4 -21 1 -5 3 -13 4
-16 0 -3 8 2 17 10 21 21 40 20 57 -4 9 -13 23 -19 44 -17 17 1 29 6 25 11 -3
5 8 6 26 3 28 -6 32 -3 51 32 11 22 17 41 15 44 -3 3 2 22 10 42 9 21 16 44
16 52 0 7 9 26 21 42 13 18 21 45 22 77 2 45 0 49 -20 46 -28 -4 -41 18 -20
33 22 16 21 22 -3 28 -11 3 -20 1 -20 -4 0 -5 -15 -9 -33 -9 -37 0 -67 -34
-48 -53 17 -17 13 -37 -8 -37 -22 0 -51 35 -51 62 0 10 7 18 15 18 8 0 23 8
33 18 38 35 63 52 77 52 17 0 20 16 5 25 -13 8 -13 52 1 60 6 4 8 13 5 21 -3
8 1 17 10 21 11 4 14 14 10 34 -6 33 -1 36 20 14 22 -22 37 -19 25 4 -8 14 -7
22 3 30 8 7 12 23 10 40 -8 49 48 79 99 54 28 -14 47 -10 47 9 0 7 -4 7 -13 0
-10 -8 -20 -5 -40 14 -14 13 -32 23 -39 22 -9 -2 -13 12 -13 47 0 46 2 50 23
48 18 -2 22 2 22 23 0 15 -4 23 -11 19 -15 -10 -38 25 -39 58 0 36 16 35 24
-3 3 -16 10 -30 16 -30 6 0 8 10 4 25 -4 18 -1 27 11 31 21 9 38 -15 23 -33
-8 -10 -5 -13 12 -13 16 0 20 4 16 15 -9 25 27 80 45 69 10 -6 -1 68 -11 79
-11 13 16 82 34 85 9 2 16 10 16 18 0 22 28 17 35 -7 4 -13 0 -27 -11 -40 -17
-18 -16 -19 14 -19 22 0 32 -5 32 -15 0 -8 -6 -15 -14 -15 -7 0 -16 -11 -18
-25 -3 -14 -2 -25 2 -25 4 0 11 -12 15 -27 6 -25 8 -26 17 -10 7 14 5 23 -8
38 -17 19 -15 21 16 23 10 1 16 14 18 39 3 34 6 38 24 34 20 -6 58 11 58 26 0
4 -11 5 -25 1 -19 -5 -25 -2 -25 10 0 9 -4 16 -8 16 -5 0 -14 11 -20 24 -11
26 -12 25 41 35 4 0 7 -14 8 -31z m1824 23 c7 -12 -12 -24 -25 -16 -11 7 -4
25 10 25 5 0 11 -4 15 -9z m91 -2 c3 -6 1 -16 -5 -22 -7 -7 -5 -14 7 -23 16
-12 15 -13 -8 -22 -20 -8 -29 -6 -44 9 -20 18 -20 19 4 44 26 28 35 31 46 14z
m-2488 -19 c11 -18 9 -24 -18 -52 -32 -32 -56 -32 -27 0 10 10 17 31 17 45 0
32 10 35 28 7z m828 9 c3 -6 -2 -26 -12 -44 -15 -28 -23 -33 -51 -32 -33 1
-50 27 -17 27 8 0 13 4 10 8 -6 11 5 26 29 40 25 14 32 15 41 1z m1818 1 c34
-13 33 -32 -1 -28 -17 2 -29 10 -31 21 -4 20 -2 20 32 7z m-2534 -20 c0 -5 -4
-10 -10 -10 -5 0 -10 5 -10 10 0 6 5 10 10 10 6 0 10 -4 10 -10z m1382 -5 c0
-5 -5 -11 -11 -13 -6 -2 -11 4 -11 13 0 9 5 15 11 13 6 -2 11 -8 11 -13z m629
-8 c-13 -13 -26 -3 -16 12 3 6 11 8 17 5 6 -4 6 -10 -1 -17z m-909 -19 c-6 -6
-15 -9 -18 -5 -4 3 -4 14 0 23 5 13 9 15 18 6 9 -9 9 -15 0 -24z m523 -5 c0
-10 4 -24 8 -30 8 -13 -10 -29 -21 -19 -3 4 -7 25 -7 46 -1 40 17 42 20 3z
m633 4 c2 -19 -1 -27 -12 -27 -9 0 -16 7 -16 15 0 9 -8 19 -17 22 -15 6 -15 7
3 14 28 11 39 5 42 -24z m-2308 13 c0 -5 -4 -10 -10 -10 -5 0 -10 5 -10 10 0
6 5 10 10 10 6 0 10 -4 10 -10z m460 -4 c0 -8 -4 -17 -8 -20 -13 -8 -35 11
-28 23 10 16 36 14 36 -3z m-320 -27 c0 -5 -7 -9 -15 -9 -15 0 -20 12 -9 23 8
8 24 -1 24 -14z m1090 11 c0 -5 -4 -10 -10 -10 -5 0 -10 5 -10 10 0 6 5 10 10
10 6 0 10 -4 10 -10z m1541 -23 c-16 -16 -26 0 -10 19 9 11 15 12 17 4 2 -6
-1 -17 -7 -23z m-1670 8 c-1 -15 -24 -12 -29 3 -3 9 2 13 12 10 10 -1 17 -7
17 -13z m849 -11 c0 -16 -16 -19 -25 -4 -8 13 4 32 16 25 5 -4 9 -13 9 -21z
m125 -4 c-5 -8 -11 -8 -17 -2 -6 6 -7 16 -3 22 5 8 11 8 17 2 6 -6 7 -16 3
-22z m145 15 c0 -8 -7 -15 -15 -15 -8 0 -15 7 -15 15 0 8 7 15 15 15 8 0 15
-7 15 -15z m-2583 -21 c-9 -9 -28 6 -21 18 4 6 10 6 17 -1 6 -6 8 -13 4 -17z
m547 -5 c-8 -14 -24 -10 -24 6 0 9 6 12 15 9 8 -4 12 -10 9 -15z m1581 12 c7
-12 -12 -24 -25 -16 -11 7 -4 25 10 25 5 0 11 -4 15 -9z m-1495 -47 c0 -7 10
-22 22 -34 24 -22 17 -37 -22 -45 -13 -3 -28 -11 -32 -20 -14 -24 -25 -18 -32
16 -4 22 0 39 13 58 18 24 18 28 4 37 -9 6 -13 15 -9 22 9 15 56 -13 56 -34z
m788 23 c2 -10 -3 -17 -12 -17 -18 0 -29 16 -21 31 9 14 29 6 33 -14z m1882 3
c0 -5 -7 -10 -15 -10 -8 0 -15 5 -15 10 0 6 7 10 15 10 8 0 15 -4 15 -10z
m-3020 -15 c0 -8 -4 -15 -10 -15 -5 0 -10 7 -10 15 0 8 5 15 10 15 6 0 10 -7
10 -15z m1668 -11 c2 -11 -8 -30 -23 -44 -23 -22 -27 -23 -41 -8 -18 18 -11
40 11 32 9 -4 16 3 21 21 7 29 27 29 32 -1z m517 12 c16 6 29 -12 16 -21 -12
-7 -51 16 -51 29 0 6 5 5 11 -1 6 -6 17 -9 24 -7z m265 -22 c0 -17 -22 -14
-28 4 -2 7 3 12 12 12 9 0 16 -7 16 -16z m-2342 -21 c-2 -10 -11 -19 -21 -21
-16 -3 -17 -1 -7 17 13 25 33 28 28 4z m1107 7 c3 -5 12 -7 19 -4 21 8 28 -11
15 -40 -15 -33 -27 -33 -39 -1 -5 14 -14 25 -20 25 -5 0 -10 7 -10 15 0 17 25
21 35 5z m815 -5 c0 -8 -7 -15 -15 -15 -8 0 -15 7 -15 15 0 8 7 15 15 15 8 0
15 -7 15 -15z m294 -7 c7 -7 15 -21 19 -31 5 -13 13 -16 27 -12 14 5 20 2 20
-10 0 -12 -8 -15 -32 -13 -24 2 -32 8 -35 27 -2 14 -8 30 -14 38 -14 17 -2 17
15 1z m96 -3 c0 -8 -7 -15 -15 -15 -8 0 -15 7 -15 15 0 8 7 15 15 15 8 0 15
-7 15 -15z m-1087 -12 c9 -9 -13 -34 -24 -27 -14 8 -11 34 4 34 8 0 17 -3 20
-7z m-1097 -30 c-10 -10 -19 5 -10 18 6 11 8 11 12 0 2 -7 1 -15 -2 -18z
m1992 16 c-2 -6 -8 -10 -13 -10 -5 0 -11 4 -13 10 -2 6 4 11 13 11 9 0 15 -5
13 -11z m472 1 c0 -5 -4 -10 -10 -10 -5 0 -10 5 -10 10 0 6 5 10 10 10 6 0 10
-4 10 -10z m-2691 -18 c12 -22 -36 -84 -49 -62 -9 14 -3 40 10 40 5 0 6 9 3
20 -7 26 22 28 36 2z m1771 2 c0 -17 -22 -14 -28 4 -2 7 3 12 12 12 9 0 16 -7
16 -16z m-1600 -24 c6 -11 8 -24 5 -29 -3 -5 8 -15 25 -23 32 -14 40 -28 15
-28 -8 0 -15 4 -15 10 0 5 -7 7 -15 4 -8 -4 -15 -1 -15 6 0 6 -9 23 -20 37
-19 24 -19 43 0 43 5 0 14 -9 20 -20z m1020 -13 c0 -8 -3 -17 -7 -20 -9 -9
-34 13 -27 24 8 14 34 11 34 -4z m72 -2 c0 -5 -5 -11 -11 -13 -6 -2 -11 4 -11
13 0 9 5 15 11 13 6 -2 11 -8 11 -13z m390 -17 c-6 -6 -15 -9 -18 -5 -4 3 -4
14 0 23 5 13 9 15 18 6 9 -9 9 -15 0 -24z m630 17 c0 -5 -5 -11 -11 -13 -6 -2
-11 4 -11 13 0 9 5 15 11 13 6 -2 11 -8 11 -13z m-2162 -3 c0 -8 -37 -42 -46
-42 -3 0 -4 7 0 15 3 8 1 15 -4 15 -6 0 -10 5 -10 10 0 6 14 10 30 10 17 0 30
-3 30 -8z m1972 -17 c0 -5 -5 -11 -11 -13 -6 -2 -11 4 -11 13 0 9 5 15 11 13
6 -2 11 -8 11 -13z m-612 -20 c0 -18 -5 -25 -20 -25 -20 0 -28 28 -13 43 15
16 33 6 33 -18z m-365 5 c8 -13 -13 -40 -31 -40 -14 0 -19 31 -7 43 10 10 31
8 38 -3z m1315 0 c0 -5 -5 -10 -11 -10 -5 0 -7 5 -4 10 3 6 8 10 11 10 2 0 4
-4 4 -10z m230 0 c0 -5 -7 -10 -16 -10 -8 0 -12 5 -9 10 3 6 10 10 16 10 5 0
9 -4 9 -10z m-3146 -21 c-3 -5 -10 -7 -15 -3 -5 3 -7 10 -3 15 3 5 10 7 15 3
5 -3 7 -10 3 -15z m638 6 c0 -5 -5 -11 -11 -13 -6 -2 -11 4 -11 13 0 9 5 15
11 13 6 -2 11 -8 11 -13z m2448 11 c0 -3 -4 -8 -10 -11 -5 -3 -10 -1 -10 4 0
6 5 11 10 11 6 0 10 -2 10 -4z m-1420 -21 c0 -8 -7 -15 -15 -15 -8 0 -15 7
-15 15 0 8 7 15 15 15 8 0 15 -7 15 -15z m344 -16 c-8 -14 -34 -11 -34 4 0 8
3 17 7 20 9 9 34 -13 27 -24z m371 22 c7 -12 -12 -24 -25 -16 -11 7 -4 25 10
25 5 0 11 -4 15 -9z m-865 -36 c-12 -15 -40 -21 -40 -8 0 3 8 15 17 25 21 23
43 7 23 -17z m250 15 c0 -11 -4 -20 -9 -20 -14 0 -23 18 -16 30 10 17 25 11
25 -10z m800 -11 c0 -20 -4 -29 -12 -26 -12 4 -18 34 -11 50 10 18 23 4 23
-24z m-1896 -14 c-5 -20 -3 -23 15 -18 12 3 21 1 21 -6 0 -6 -7 -11 -15 -11
-8 0 -15 -5 -15 -11 0 -6 -6 -9 -12 -6 -7 2 -12 9 -11 15 2 6 -6 14 -17 17
-27 8 -25 28 3 41 29 14 38 8 31 -21z m-1218 -13 c-18 -16 -18 -16 -6 6 6 13
14 21 18 18 3 -4 -2 -14 -12 -24z m2124 -6 c0 -38 -12 -53 -28 -33 -14 16 -3
67 14 67 9 0 14 -12 14 -34z m385 24 c3 -5 3 -16 -2 -22 -4 -7 -8 -20 -8 -28
0 -8 -8 -16 -18 -18 -17 -3 -18 0 -12 30 11 49 25 63 40 38z m88 3 c8 -14 -12
-53 -27 -53 -22 0 -28 17 -14 40 13 20 33 26 41 13z m-323 -13 c0 -5 -4 -10
-10 -10 -5 0 -10 5 -10 10 0 6 5 10 10 10 6 0 10 -4 10 -10z m1090 -6 c0 -8
-5 -12 -10 -9 -6 4 -8 11 -5 16 9 14 15 11 15 -7z m130 6 c0 -5 -2 -10 -4 -10
-3 0 -8 5 -11 10 -3 6 -1 10 4 10 6 0 11 -4 11 -10z m-2370 -10 c0 -5 -4 -10
-10 -10 -5 0 -10 5 -10 10 0 6 5 10 10 10 6 0 10 -4 10 -10z m1873 -14 c20
-15 23 -36 5 -36 -21 1 -51 28 -43 39 8 14 16 13 38 -3z m-971 -26 c14 -21 38
-27 38 -9 0 16 25 5 26 -12 2 -35 28 -69 52 -69 22 0 24 -3 18 -32 -8 -39 -20
-48 -54 -39 -17 5 -29 16 -32 32 -4 16 -8 20 -14 11 -16 -26 -41 -12 -54 29
-11 36 -11 43 4 54 16 11 15 12 -5 18 -24 6 -29 37 -6 37 8 0 20 -9 27 -20z
m658 -11 c0 -5 -7 -9 -15 -9 -15 0 -20 12 -9 23 8 8 24 -1 24 -14z m-1524 -16
c-10 -10 -19 5 -10 18 6 11 8 11 12 0 2 -7 1 -15 -2 -18z m1049 -3 c0 -32 -30
-39 -38 -9 -8 28 0 41 21 37 11 -2 17 -13 17 -28z m985 9 c0 -5 -7 -9 -15 -9
-15 0 -20 12 -9 23 8 8 24 -1 24 -14z m-3255 1 c3 -5 -1 -10 -10 -10 -9 0 -13
5 -10 10 3 6 8 10 10 10 2 0 7 -4 10 -10z m1098 4 c3 -4 2 -16 -4 -26 -13 -24
-35 -9 -26 16 7 17 19 21 30 10z m-1223 -8 c0 -11 -19 -15 -25 -6 -3 5 1 10 9
10 9 0 16 -2 16 -4z m1440 -25 c0 -10 -8 -21 -17 -25 -10 -3 -26 -11 -35 -18
-9 -7 -20 -10 -23 -6 -9 9 17 48 32 48 7 0 13 5 13 10 0 6 7 10 15 10 8 0 15
-8 15 -19z m1850 4 c0 -8 -4 -15 -9 -15 -13 0 -22 16 -14 24 11 11 23 6 23 -9z
m-2020 -5 c0 -5 -4 -10 -10 -10 -5 0 -10 5 -10 10 0 6 5 10 10 10 6 0 10 -4
10 -10z m1444 -9 c19 -20 14 -41 -8 -41 -18 0 -49 37 -41 49 10 17 30 13 49
-8z m146 9 c0 -5 -7 -10 -15 -10 -8 0 -15 5 -15 10 0 6 7 10 15 10 8 0 15 -4
15 -10z m740 0 c0 -5 -4 -10 -10 -10 -5 0 -10 5 -10 10 0 6 5 10 10 10 6 0 10
-4 10 -10z m287 -26 c-9 -9 -28 6 -21 18 4 6 10 6 17 -1 6 -6 8 -13 4 -17z
m-2703 -3 c4 -5 7 -20 8 -33 3 -33 16 -42 63 -46 48 -4 63 -16 45 -37 -10 -12
-10 -15 4 -15 9 0 16 5 16 10 0 6 7 10 15 10 23 0 18 -24 -9 -36 -30 -14 -60
5 -50 31 6 15 3 16 -26 10 -23 -5 -35 -3 -41 6 -6 10 -9 11 -9 2 0 -7 -5 -13
-10 -13 -6 0 -8 10 -5 23 4 15 0 29 -13 41 -12 10 -18 25 -15 37 6 20 18 25
27 10z m161 -10 c3 -10 5 -23 4 -27 -6 -34 23 -49 35 -18 3 8 10 12 16 9 15
-9 12 -25 -5 -25 -8 0 -15 -7 -15 -15 0 -8 -3 -15 -7 -15 -12 0 -43 33 -43 46
0 7 -5 14 -11 16 -13 4 -3 48 11 48 5 0 11 -9 15 -19z m1605 10 c0 -9 -24 -21
-41 -21 -5 0 -9 7 -9 15 0 9 9 15 25 15 14 0 25 -4 25 -9z m-307 -10 c11 -1 9
-29 -3 -36 -5 -3 -16 -3 -22 2 -17 10 -68 10 -68 0 0 -5 -8 -7 -17 -5 -27 5
-22 33 5 32 12 0 22 3 22 7 0 6 36 6 83 0z m417 -11 c0 -11 -4 -20 -9 -20 -11
0 -22 26 -14 34 12 12 23 5 23 -14z m-2042 -11 c4 -20 -37 -44 -51 -30 -7 7
-5 17 8 31 20 22 38 22 43 -1z m262 10 c0 -12 -29 -38 -42 -39 -12 0 -9 19 5
35 15 17 37 19 37 4z m1715 2 c7 -12 -12 -24 -25 -16 -11 7 -4 25 10 25 5 0
11 -4 15 -9z m845 -1 c0 -5 -4 -10 -10 -10 -5 0 -10 5 -10 10 0 6 5 10 10 10
6 0 10 -4 10 -10z m-1799 -27 c1 -17 3 -21 6 -10 6 23 30 22 43 -2 14 -27 13
-30 -12 -41 -13 -6 -31 -15 -40 -22 -25 -18 -60 15 -48 45 5 12 11 30 14 40 9
28 36 21 37 -10z m-1751 -3 c0 -5 -2 -10 -4 -10 -3 0 -8 5 -11 10 -3 6 -1 10
4 10 6 0 11 -4 11 -10z m1900 -5 c0 -8 -7 -15 -15 -15 -8 0 -15 7 -15 15 0 8
7 15 15 15 8 0 15 -7 15 -15z m540 -21 c0 -14 -21 -19 -33 -7 -9 9 13 34 24
27 5 -3 9 -12 9 -20z m60 16 c0 -5 -4 -10 -10 -10 -5 0 -10 5 -10 10 0 6 5 10
10 10 6 0 10 -4 10 -10z m914 -11 c-3 -5 -10 -7 -15 -3 -5 3 -7 10 -3 15 3 5
10 7 15 3 5 -3 7 -10 3 -15z m-444 1 c0 -5 -4 -10 -10 -10 -5 0 -10 5 -10 10
0 6 5 10 10 10 6 0 10 -4 10 -10z m-318 -39 c17 -30 17 -51 -1 -51 -15 0 -51
59 -45 75 9 22 25 14 46 -24z m-1952 5 c0 -21 -21 -31 -30 -15 -5 7 -6 17 -4
21 9 14 34 9 34 -6z m150 -21 c0 -8 -9 -15 -20 -15 -11 0 -20 7 -20 15 0 8 9
15 20 15 11 0 20 -7 20 -15z m2200 -16 c0 -11 -3 -11 -24 -3 -23 9 -20 23 4
17 11 -3 20 -9 20 -14z m-3380 -9 c0 -5 -4 -10 -10 -10 -5 0 -10 5 -10 10 0 6
5 10 10 10 6 0 10 -4 10 -10z m2450 -4 c0 -21 -21 -31 -30 -15 -5 7 -6 17 -4
21 9 14 34 9 34 -6z m-1330 -16 c0 -11 -7 -20 -15 -20 -8 0 -15 9 -15 20 0 11
7 20 15 20 8 0 15 -9 15 -20z m121 -30 c3 -25 7 -36 7 -24 1 11 13 26 26 32
26 12 36 7 36 -16 0 -9 7 -23 15 -33 14 -15 14 -18 -1 -33 -10 -10 -14 -26
-11 -41 4 -26 -16 -36 -27 -12 -3 6 -3 1 0 -11 5 -21 3 -23 -15 -17 -17 5 -21
2 -21 -14 0 -23 -18 -38 -30 -25 -4 5 -11 26 -14 47 -7 35 -5 37 19 37 25 0
25 0 8 28 -9 15 -18 29 -20 31 -1 2 -15 4 -30 5 -30 1 -40 26 -29 72 5 20 12
23 44 21 36 -2 37 -3 43 -47z m856 24 c8 -23 -12 -38 -41 -30 -39 10 -36 46 4
46 19 0 33 -6 37 -16z m1013 -5 c12 -21 7 -49 -8 -49 -13 0 -35 47 -28 59 11
17 24 13 36 -10z m-3120 1 c0 -5 -4 -10 -10 -10 -5 0 -10 5 -10 10 0 6 5 10
10 10 6 0 10 -4 10 -10z m685 0 c3 -5 -1 -10 -9 -10 -9 0 -16 5 -16 10 0 6 4
10 9 10 6 0 13 -4 16 -10z m1213 -17 c-5 -26 -38 -29 -38 -4 0 15 6 21 21 21
14 0 19 -5 17 -17z m-3258 -24 c0 -24 -23 -21 -28 4 -2 10 3 17 12 17 10 0 16
-9 16 -21z m4638 9 c-6 -18 -28 -21 -28 -4 0 9 7 16 16 16 9 0 14 -5 12 -12z
m-2948 -8 c0 -5 -4 -10 -10 -10 -5 0 -10 5 -10 10 0 6 5 10 10 10 6 0 10 -4
10 -10z m726 0 c8 0 14 -7 14 -15 0 -10 -10 -15 -30 -15 -24 0 -30 4 -30 21 0
15 4 19 16 15 9 -3 22 -6 30 -6z m84 -6 c0 -9 -7 -14 -17 -12 -25 5 -28 28 -4
28 12 0 21 -6 21 -16z m2060 1 c0 -8 -7 -15 -15 -15 -8 0 -15 7 -15 15 0 8 7
15 15 15 8 0 15 -7 15 -15z m-2450 -15 c0 -5 -7 -10 -15 -10 -8 0 -15 5 -15
10 0 6 7 10 15 10 8 0 15 -4 15 -10z m210 -10 c11 -20 6 -40 -8 -40 -12 0 -33
40 -27 50 10 16 23 12 35 -10z m-706 1 c6 -9 -35 -24 -43 -15 -6 5 18 24 31
24 4 0 9 -4 12 -9z m454 -2 c-2 -6 -8 -10 -13 -10 -5 0 -11 4 -13 10 -2 6 4
11 13 11 9 0 15 -5 13 -11z m-548 -9 c0 -5 -2 -10 -4 -10 -3 0 -8 5 -11 10 -3
6 -1 10 4 10 6 0 11 -4 11 -10z m175 -10 c3 -5 1 -10 -4 -10 -6 0 -11 5 -11
10 0 6 2 10 4 10 3 0 8 -4 11 -10z m2948 -24 c10 -29 3 -46 -12 -30 -5 5 -13
22 -17 38 -9 38 16 31 29 -8z m-2896 -2 c-9 -9 -28 6 -21 18 4 6 10 6 17 -1 6
-6 8 -13 4 -17z m378 17 c3 -5 1 -12 -5 -16 -5 -3 -10 1 -10 9 0 18 6 21 15 7z
m-815 -11 c0 -5 -4 -10 -10 -10 -5 0 -10 5 -10 10 0 6 5 10 10 10 6 0 10 -4
10 -10z m3148 -17 c-4 -22 -22 -20 -26 1 -2 10 3 16 13 16 10 0 15 -7 13 -17z
m-2378 -3 c0 -5 -4 -10 -10 -10 -5 0 -10 5 -10 10 0 6 5 10 10 10 6 0 10 -4
10 -10z m410 -10 c0 -11 -6 -20 -14 -20 -18 0 -29 16 -21 30 11 18 35 11 35
-10z m2260 10 c0 -5 -4 -10 -9 -10 -6 0 -13 5 -16 10 -3 6 1 10 9 10 9 0 16
-4 16 -10z m-3440 -4 c0 -3 -4 -8 -10 -11 -5 -3 -10 -1 -10 4 0 6 5 11 10 11
6 0 10 -2 10 -4z m3530 -17 c0 -5 -4 -9 -10 -9 -5 0 -10 7 -10 16 0 8 5 12 10
9 6 -3 10 -10 10 -16z m-338 -6 c20 -18 24 -43 6 -43 -19 0 -47 31 -41 46 7
18 12 18 35 -3z m-3132 -3 c0 -5 -4 -10 -10 -10 -5 0 -10 5 -10 10 0 6 5 10
10 10 6 0 10 -4 10 -10z m3651 -3 c-1 -12 -15 -9 -19 4 -3 6 1 10 8 8 6 -3 11
-8 11 -12z m-411 -12 c0 -8 -7 -15 -15 -15 -8 0 -15 7 -15 15 0 8 7 15 15 15
8 0 15 -7 15 -15z m-2141 -17 c9 -25 -15 -81 -32 -75 -11 3 -18 72 -9 90 7 15
33 6 41 -15z m-239 -13 c0 -8 -4 -15 -10 -15 -5 0 -10 7 -10 15 0 8 5 15 10
15 6 0 10 -7 10 -15z m2367 -11 c-3 -3 -12 -4 -19 -1 -8 3 -5 6 6 6 11 1 17
-2 13 -5z m-2455 -19 c0 -5 -5 -11 -11 -13 -6 -2 -11 4 -11 13 0 9 5 15 11 13
6 -2 11 -8 11 -13z m436 -12 c-4 -22 -22 -20 -26 1 -2 10 3 16 13 16 10 0 15
-7 13 -17z m1880 -11 c2 -7 -5 -16 -17 -19 -12 -3 -21 -9 -21 -13 0 -5 -7 -16
-16 -25 -12 -11 -20 -13 -29 -5 -18 15 -8 43 23 62 31 19 53 19 60 0z m-2238
-13 c0 -5 -7 -9 -15 -9 -15 0 -20 12 -9 23 8 8 24 -1 24 -14z m2315 11 c3 -5
-1 -10 -9 -10 -9 0 -16 5 -16 10 0 6 4 10 9 10 6 0 13 -4 16 -10z m-1767 -22
c-7 -19 -38 -22 -38 -4 0 10 9 16 21 16 12 0 19 -5 17 -12z m1807 -8 c3 -6 -1
-13 -10 -16 -19 -8 -30 0 -20 15 8 14 22 14 30 1z m55 -5 c0 -8 -7 -15 -15
-15 -8 0 -15 7 -15 15 0 8 7 15 15 15 8 0 15 -7 15 -15z m-2048 -10 c0 -5 -5
-11 -11 -13 -6 -2 -11 4 -11 13 0 9 5 15 11 13 6 -2 11 -8 11 -13z m2378 -10
c0 -8 -7 -15 -15 -15 -16 0 -20 12 -8 23 11 12 23 8 23 -8z m-2302 -18 c2 -12
-3 -17 -17 -17 -12 0 -21 6 -21 13 0 31 32 34 38 4z m-200 -7 c7 -12 10 -25 7
-30 -10 -17 -34 -11 -45 10 -21 38 15 56 38 20z m-348 -15 c0 -10 -10 -15 -32
-15 -31 1 -32 1 -14 15 25 19 46 19 46 0z m2674 -16 c-3 -5 -10 -7 -15 -3 -5
3 -7 10 -3 15 3 5 10 7 15 3 5 -3 7 -10 3 -15z m-2474 -4 c0 -8 -7 -15 -15
-15 -16 0 -20 12 -8 23 11 12 23 8 23 -8z m300 6 c0 -5 13 -23 29 -39 35 -34
28 -51 -19 -49 -30 2 -35 5 -35 27 0 14 -4 31 -8 38 -5 6 -5 17 -2 22 8 13 35
13 35 1z m-3712 -29 c3 -18 -2 -22 -22 -22 -28 0 -34 18 -14 38 17 17 32 10
36 -16z m3660 -10 c2 -7 -3 -12 -12 -12 -9 0 -16 7 -16 16 0 17 22 14 28 -4z
m132 3 c0 -8 -7 -15 -15 -15 -8 0 -15 7 -15 15 0 8 7 15 15 15 8 0 15 -7 15
-15z m2475 -15 c-5 -8 -11 -8 -17 -2 -6 6 -7 16 -3 22 5 8 11 8 17 2 6 -6 7
-16 3 -22z m-4772 -5 c1 -5 -6 -11 -15 -13 -11 -2 -18 3 -18 13 0 17 30 18 33
0z m2334 -6 c15 -15 5 -39 -17 -39 -22 0 -32 24 -17 39 6 6 14 11 17 11 3 0
11 -5 17 -11z m1699 -1 c8 -13 -22 -38 -48 -38 -21 0 -25 35 -5 43 22 9 46 7
53 -5z m422 1 c-2 -6 -8 -10 -13 -10 -5 0 -11 4 -13 10 -2 6 4 11 13 11 9 0
15 -5 13 -11z m-2293 -29 c4 -6 1 -18 -6 -26 -11 -13 -14 -13 -27 0 -8 8 -11
19 -8 25 9 14 33 14 41 1z m-915 -21 c0 -5 -4 -9 -10 -9 -5 0 -10 7 -10 16 0
8 5 12 10 9 6 -3 10 -10 10 -16z m758 -2 c4 -22 -27 -35 -38 -16 -10 15 7 42
24 36 6 -2 12 -11 14 -20z m-257 -10 c-13 -13 -26 -3 -16 12 3 6 11 8 17 5 6
-4 6 -10 -1 -17z m-591 -8 c0 -5 -7 -9 -15 -9 -15 0 -20 12 -9 23 8 8 24 -1
24 -14z m2880 -4 c13 -16 6 -35 -15 -35 -18 0 -28 17 -21 35 7 19 20 19 36 0z
m-1812 -23 c3 -16 -2 -22 -17 -22 -24 0 -33 13 -25 35 9 23 38 14 42 -13z
m-698 -7 c0 -8 -4 -15 -10 -15 -5 0 -10 7 -10 15 0 8 5 15 10 15 6 0 10 -7 10
-15z m2460 -15 c0 -11 -4 -20 -9 -20 -5 0 -11 -10 -13 -22 -2 -15 -10 -23 -22
-23 -25 0 -31 19 -12 38 8 8 13 17 10 20 -10 10 7 27 27 27 12 0 19 -7 19 -20z
m452 -5 c0 -5 -5 -11 -11 -13 -6 -2 -11 4 -11 13 0 9 5 15 11 13 6 -2 11 -8
11 -13z m-3072 -26 c0 -5 -7 -9 -15 -9 -15 0 -20 12 -9 23 8 8 24 -1 24 -14z
m460 16 c0 -14 -33 -54 -40 -50 -12 7 13 55 28 55 6 0 12 -2 12 -5z m-382 -16
c-2 -6 -8 -10 -13 -10 -5 0 -11 4 -13 10 -2 6 4 11 13 11 9 0 15 -5 13 -11z
m227 -7 c0 -18 -20 -15 -23 4 -3 10 1 15 10 12 7 -3 13 -10 13 -16z m2357 -50
c-1 -23 -11 -58 -22 -77 -11 -19 -15 -35 -10 -35 16 0 12 -37 -4 -43 -21 -8
-42 19 -27 37 6 7 9 21 5 30 -3 9 -1 23 6 31 8 9 10 27 6 46 -7 36 8 62 33 57
12 -3 15 -14 13 -46z m113 13 c0 -15 -8 -21 -32 -23 -27 -3 -33 0 -33 17 0 21
15 31 45 28 13 -1 20 -9 20 -22z m175 10 c0 -9 -6 -12 -15 -9 -8 4 -12 10 -9
15 8 14 24 10 24 -6z m-112 -6 c-2 -6 -8 -10 -13 -10 -5 0 -11 4 -13 10 -2 6
4 11 13 11 9 0 15 -5 13 -11z m-2228 -9 c0 -6 8 -10 18 -8 13 2 17 -5 19 -30
1 -21 -4 -35 -13 -39 -21 -8 -29 4 -15 21 9 11 9 16 -1 22 -7 5 -17 9 -23 9
-5 0 -11 8 -13 18 -2 10 3 17 12 17 9 0 16 -5 16 -10z m-55 -10 c3 -5 -3 -20
-15 -32 -18 -19 -22 -20 -30 -8 -19 30 -11 42 32 49 4 0 10 -3 13 -9z m-189
-11 c8 -14 -21 -43 -35 -35 -8 5 -8 13 -1 27 12 21 25 25 36 8z m2234 -9 c0
-13 -7 -20 -20 -20 -13 0 -20 7 -20 20 0 13 7 20 20 20 13 0 20 -7 20 -20z
m1031 10 c5 0 9 -7 9 -15 0 -18 -14 -19 -41 -4 -22 11 -15 34 8 25 8 -3 19 -6
24 -6z m-3811 -15 c0 -8 4 -15 9 -15 14 0 41 -29 41 -43 -1 -28 -17 -38 -53
-32 -41 8 -50 23 -33 57 7 13 11 29 8 36 -2 6 3 12 12 12 9 0 16 -7 16 -15z
m665 -15 c-3 -5 -10 -10 -16 -10 -5 0 -9 5 -9 10 0 6 7 10 16 10 8 0 12 -4 9
-10z m2063 -43 c4 -20 -25 -34 -40 -19 -15 15 -1 44 19 40 10 -2 19 -11 21
-21z m269 7 c8 -21 -13 -42 -28 -27 -13 13 -5 43 11 43 6 0 13 -7 17 -16z
m178 7 c7 -12 -12 -24 -25 -16 -11 7 -4 25 10 25 5 0 11 -4 15 -9z m-2487 -23
c-6 -18 -28 -21 -28 -4 0 9 7 16 16 16 9 0 14 -5 12 -12z m70 0 c-6 -18 -28
-21 -28 -4 0 9 7 16 16 16 9 0 14 -5 12 -12z m2132 -3 c0 -9 -7 -18 -16 -22
-18 -7 -39 11 -30 26 11 17 46 13 46 -4z m1200 1 c0 -8 -4 -17 -9 -20 -10 -7
-23 19 -14 28 11 11 23 6 23 -8z m-5490 -16 c0 -24 -26 -38 -42 -22 -8 8 -8
15 2 27 18 21 40 19 40 -5z m2310 -42 c0 -10 -6 -18 -14 -18 -20 0 -39 27 -32
45 5 13 9 13 26 3 11 -7 20 -21 20 -30z m-130 2 c0 -13 7 -20 20 -20 11 0 20
-7 20 -15 0 -8 -7 -15 -15 -15 -8 0 -15 5 -15 10 0 6 -9 10 -20 10 -21 0 -24
8 -14 34 9 23 24 20 24 -4z m-102 -1 c-2 -6 -8 -10 -13 -10 -5 0 -11 4 -13 10
-2 6 4 11 13 11 9 0 15 -5 13 -11z m2058 -20 c3 -6 0 -18 -9 -26 -18 -18 -37
-9 -37 18 0 21 34 27 46 8z m-3162 -18 c3 -4 3 -11 0 -14 -8 -8 -34 3 -34 14
0 11 27 12 34 0z m1331 0 c7 -12 -12 -24 -25 -16 -11 7 -4 25 10 25 5 0 11 -4
15 -9z m-545 -15 c0 -19 -17 -29 -37 -22 -12 5 -13 9 -3 21 16 19 40 19 40 1z
m2503 -18 c14 -21 2 -48 -22 -48 -10 0 -21 -9 -24 -20 -5 -20 -31 -27 -41 -11
-13 20 7 72 33 86 30 16 41 15 54 -7z m1297 -9 c0 -5 -7 -9 -15 -9 -15 0 -20
12 -9 23 8 8 24 -1 24 -14z m-3392 -31 c-6 -18 -28 -21 -28 -4 0 9 7 16 16 16
9 0 14 -5 12 -12z m-140 -19 c-2 -6 -8 -10 -13 -10 -5 0 -11 4 -13 10 -2 6 4
11 13 11 9 0 15 -5 13 -11z m300 -26 c2 -8 -5 -13 -17 -13 -12 0 -21 6 -21 16
0 18 31 15 38 -3z m-270 -41 c2 -7 -3 -12 -12 -12 -9 0 -16 7 -16 16 0 17 22
14 28 -4z m2310 7 c-2 -6 -8 -10 -13 -10 -5 0 -11 4 -13 10 -2 6 4 11 13 11 9
0 15 -5 13 -11z m402 -4 c0 -8 -4 -15 -10 -15 -5 0 -10 7 -10 15 0 8 5 15 10
15 6 0 10 -7 10 -15z m600 5 c0 -5 -7 -10 -15 -10 -8 0 -15 5 -15 10 0 6 7 10
15 10 8 0 15 -4 15 -10z m-838 -25 c0 -5 -5 -11 -11 -13 -6 -2 -11 4 -11 13 0
9 5 15 11 13 6 -2 11 -8 11 -13z m-2292 -20 c0 -8 -4 -15 -9 -15 -13 0 -22 16
-14 24 11 11 23 6 23 -9z m2567 -31 c-9 -9 -28 6 -21 18 4 6 10 6 17 -1 6 -6
8 -13 4 -17z m-2875 -39 c0 -5 -5 -11 -11 -13 -6 -2 -11 4 -11 13 0 9 5 15 11
13 6 -2 11 -8 11 -13z m368 0 c0 -8 -7 -15 -15 -15 -8 0 -15 7 -15 15 0 8 7
15 15 15 8 0 15 -7 15 -15z m-68 -10 c0 -5 -5 -11 -11 -13 -6 -2 -11 4 -11 13
0 9 5 15 11 13 6 -2 11 -8 11 -13z m2108 0 c0 -8 -7 -15 -15 -15 -8 0 -15 7
-15 15 0 8 7 15 15 15 8 0 15 -7 15 -15z m270 0 c0 -8 -4 -15 -9 -15 -13 0
-22 16 -14 24 11 11 23 6 23 -9z m-2470 -20 c0 -8 -7 -15 -15 -15 -16 0 -20
12 -8 23 11 12 23 8 23 -8z m65 -15 c0 -7 -6 -15 -12 -17 -8 -3 -13 4 -13 17
0 13 5 20 13 18 6 -3 12 -11 12 -18z m2485 10 c0 -5 -4 -10 -10 -10 -5 0 -10
5 -10 10 0 6 5 10 10 10 6 0 10 -4 10 -10z m730 -5 c0 -8 -4 -15 -10 -15 -5 0
-10 7 -10 15 0 8 5 15 10 15 6 0 10 -7 10 -15z m-3170 -20 c0 -8 -4 -15 -9
-15 -13 0 -22 16 -14 24 11 11 23 6 23 -9z m2240 -20 c0 -8 -4 -15 -9 -15 -13
0 -22 16 -14 24 11 11 23 6 23 -9z m-3180 -10 c0 -8 -4 -15 -10 -15 -5 0 -10
7 -10 15 0 8 5 15 10 15 6 0 10 -7 10 -15z m1102 0 c0 -5 -5 -11 -11 -13 -6
-2 -11 4 -11 13 0 9 5 15 11 13 6 -2 11 -8 11 -13z m-182 -16 c0 -5 -7 -9 -15
-9 -15 0 -20 12 -9 23 8 8 24 -1 24 -14z m2210 -4 c0 -8 -7 -15 -15 -15 -16 0
-20 12 -8 23 11 12 23 8 23 -8z m360 7 c0 -13 -12 -22 -22 -16 -10 6 -1 24 13
24 5 0 9 -4 9 -8z m-2525 -23 c10 -15 -1 -23 -20 -15 -9 3 -13 10 -10 16 8 13
22 13 30 -1z m2253 -26 c-2 -10 -10 -18 -18 -18 -8 0 -16 8 -18 18 -2 12 3 17
18 17 15 0 20 -5 18 -17z m-260 -16 c2 -10 -3 -17 -12 -17 -18 0 -29 16 -21
31 9 14 29 6 33 -14z m612 -1 c0 -27 -17 -43 -31 -29 -12 12 1 53 17 53 8 0
14 -10 14 -24z m-3150 4 c0 -5 -4 -10 -10 -10 -5 0 -10 5 -10 10 0 6 5 10 10
10 6 0 10 -4 10 -10z m450 -55 c0 -8 -7 -15 -15 -15 -16 0 -20 12 -8 23 11 12
23 8 23 -8z m2500 0 c0 -8 -4 -15 -9 -15 -13 0 -22 16 -14 24 11 11 23 6 23
-9z m-3540 -10 c0 -8 -4 -15 -10 -15 -5 0 -10 7 -10 15 0 8 5 15 10 15 6 0 10
-7 10 -15z m-2005 -16 c0 -8 -10 -15 -22 -17 -25 -4 -30 7 -11 26 15 15 33 10
33 -9z m2345 6 c0 -15 -43 -12 -48 3 -3 10 4 13 22 10 15 -2 26 -7 26 -13z
m1206 -14 c-10 -16 -36 -13 -36 3 0 17 21 27 34 16 4 -5 5 -13 2 -19z m-328
-19 c2 -7 -3 -12 -12 -12 -9 0 -16 7 -16 16 0 17 22 14 28 -4z m202 -1 c0 -14
-18 -23 -30 -16 -6 4 -8 11 -5 16 8 12 35 12 35 0z m2467 -27 c-9 -9 -28 6
-21 18 4 6 10 6 17 -1 6 -6 8 -13 4 -17z m-2859 -2 c2 -7 -3 -12 -12 -12 -9 0
-16 7 -16 16 0 17 22 14 28 -4z m2152 3 c0 -8 -7 -15 -15 -15 -8 0 -15 7 -15
15 0 8 7 15 15 15 8 0 15 -7 15 -15z m-1680 -26 c0 -5 -7 -9 -15 -9 -15 0 -20
12 -9 23 8 8 24 -1 24 -14z m-322 -23 c3 -13 -1 -17 -14 -14 -11 2 -20 11 -22
22 -3 13 1 17 14 14 11 -2 20 -11 22 -22z m-818 -1 c0 -8 -4 -15 -9 -15 -13 0
-22 16 -14 24 11 11 23 6 23 -9z m1070 0 c0 -8 -6 -15 -12 -15 -7 0 -23 -3
-35 -6 -14 -4 -23 -2 -23 5 0 12 33 29 58 30 6 1 12 -6 12 -14z m2550 -15 c0
-5 -7 -10 -15 -10 -8 0 -15 5 -15 10 0 6 7 10 15 10 8 0 15 -4 15 -10z m51 -3
c-1 -12 -15 -9 -19 4 -3 6 1 10 8 8 6 -3 11 -8 11 -12z m-2269 -68 c-9 -16
-21 -29 -25 -29 -17 0 -18 32 -2 56 13 20 19 23 30 14 11 -9 11 -16 -3 -41z
m-362 21 c0 -5 -4 -10 -10 -10 -5 0 -10 5 -10 10 0 6 5 10 10 10 6 0 10 -4 10
-10z m2070 -21 c0 -5 -7 -9 -15 -9 -15 0 -20 12 -9 23 8 8 24 -1 24 -14z
m-3340 -4 c0 -8 -4 -15 -10 -15 -5 0 -10 7 -10 15 0 8 5 15 10 15 6 0 10 -7
10 -15z m1540 0 c0 -8 -7 -15 -15 -15 -8 0 -15 7 -15 15 0 8 7 15 15 15 8 0
15 -7 15 -15z m2490 -6 c0 -5 -4 -9 -10 -9 -5 0 -10 7 -10 16 0 8 5 12 10 9 6
-3 10 -10 10 -16z m-2885 0 c10 -15 -1 -23 -20 -15 -9 3 -13 10 -10 16 8 13
22 13 30 -1z m2795 3 c0 -13 -12 -22 -22 -16 -10 6 -1 24 13 24 5 0 9 -4 9 -8z
m-90 -12 c0 -5 -4 -10 -10 -10 -5 0 -10 5 -10 10 0 6 5 10 10 10 6 0 10 -4 10
-10z m-2905 -30 c-5 -8 -11 -8 -17 -2 -6 6 -7 16 -3 22 5 8 11 8 17 2 6 -6 7
-16 3 -22z m2120 -10 c-5 -8 -11 -8 -17 -2 -6 6 -7 16 -3 22 5 8 11 8 17 2 6
-6 7 -16 3 -22z m-2398 -6 c-9 -9 -28 6 -21 18 4 6 10 6 17 -1 6 -6 8 -13 4
-17z m221 14 c-6 -18 -28 -21 -28 -4 0 9 7 16 16 16 9 0 14 -5 12 -12z m632
-3 c0 -8 -7 -15 -15 -15 -8 0 -15 7 -15 15 0 8 7 15 15 15 8 0 15 -7 15 -15z
m157 3 c7 17 43 15 43 -3 0 -9 -6 -18 -14 -21 -8 -3 -12 -12 -9 -21 3 -8 0
-19 -7 -23 -19 -11 -82 51 -68 67 7 9 14 9 30 0 16 -9 22 -9 25 1z m1685 -3
c0 -5 -5 -11 -11 -13 -6 -2 -11 4 -11 13 0 9 5 15 11 13 6 -2 11 -8 11 -13z
m518 -3 c0 -13 -12 -22 -22 -16 -10 6 -1 24 13 24 5 0 9 -4 9 -8z m-3870 -17
c0 -8 -4 -15 -9 -15 -13 0 -22 16 -14 24 11 11 23 6 23 -9z m1558 -27 c-2 -18
-11 -24 -35 -26 -25 -2 -33 1 -33 13 0 8 10 20 23 25 37 15 49 12 45 -12z m58
-3 c4 -8 12 -15 20 -15 8 0 14 -9 14 -21 0 -17 -5 -20 -32 -17 -22 2 -34 9
-36 21 -8 38 22 65 34 32z m1542 -9 c3 -13 -1 -17 -14 -14 -11 2 -20 11 -22
22 -3 13 1 17 14 14 11 -2 20 -11 22 -22z m-1381 -2 c8 -21 -13 -42 -28 -27
-13 13 -5 43 11 43 6 0 13 -7 17 -16z m1423 -20 c0 -26 -17 -33 -26 -9 -8 20
3 48 16 40 5 -3 10 -17 10 -31z m730 28 c0 -13 -12 -22 -22 -16 -10 6 -1 24
13 24 5 0 9 -4 9 -8z m-630 -37 c0 -8 -4 -15 -10 -15 -5 0 -10 7 -10 15 0 8 5
15 10 15 6 0 10 -7 10 -15z m-1720 -36 c0 -8 -15 -13 -32 -10 -5 0 -8 -6 -8
-14 0 -8 5 -15 10 -15 6 0 10 -11 10 -23 0 -29 31 -60 53 -51 35 13 90 -44 67
-71 -14 -17 -50 -7 -50 15 0 24 -22 40 -47 34 -51 -14 -111 102 -79 152 15 21
17 22 46 8 16 -9 30 -20 30 -25z m150 26 c10 -12 7 -17 -14 -26 -31 -14 -53
-1 -43 25 8 20 41 21 57 1z m2240 5 c0 -5 -4 -10 -10 -10 -5 0 -10 5 -10 10 0
6 5 10 10 10 6 0 10 -4 10 -10z m60 2 c0 -13 -12 -22 -22 -16 -10 6 -1 24 13
24 5 0 9 -4 9 -8z m-5752 -30 c3 -9 -2 -13 -14 -10 -9 1 -19 9 -22 16 -3 9 2
13 14 10 9 -1 19 -9 22 -16z m2606 12 c9 -3 16 -17 16 -30 0 -19 -5 -24 -24
-24 -16 0 -27 7 -31 20 -11 33 5 47 39 34z m2578 -39 c0 -5 -5 -11 -11 -13 -6
-2 -11 4 -11 13 0 9 5 15 11 13 6 -2 11 -8 11 -13z m-1688 -5 c16 -6 26 -17
26 -30 0 -21 -24 -28 -35 -10 -3 6 -17 10 -31 10 -17 0 -24 5 -24 20 0 22 23
26 64 10z m1278 -5 c0 -5 -5 -11 -11 -13 -6 -2 -11 4 -11 13 0 9 5 15 11 13 6
-2 11 -8 11 -13z m-1375 -11 c7 -20 -17 -37 -34 -23 -15 13 -6 39 13 39 8 0
17 -7 21 -16z m1973 -4 c0 -5 -4 -10 -10 -10 -5 0 -10 5 -10 10 0 6 5 10 10
10 6 0 10 -4 10 -10z m-472 -21 c-2 -6 -8 -10 -13 -10 -5 0 -11 4 -13 10 -2 6
4 11 13 11 9 0 15 -5 13 -11z m-3178 -14 c0 -8 -9 -15 -20 -15 -11 0 -20 7
-20 15 0 8 9 15 20 15 11 0 20 -7 20 -15z m4100 -1 c0 -8 -4 -12 -10 -9 -5 3
-10 10 -10 16 0 5 5 9 10 9 6 0 10 -7 10 -16z m-2372 -11 c5 -16 -22 -27 -44
-19 -13 5 -14 9 -4 22 15 17 41 15 48 -3z m1612 -3 c0 -24 -26 -38 -42 -22 -8
8 -8 15 2 27 18 21 40 19 40 -5z m280 5 c0 -8 -4 -15 -9 -15 -13 0 -22 16 -14
24 11 11 23 6 23 -9z m-2585 -16 c4 -11 4 -24 0 -27 -9 -9 -36 28 -29 39 9 15
22 10 29 -12z m805 7 c0 -8 -10 -16 -22 -18 -15 -2 -24 -11 -26 -25 -4 -27
-20 -29 -48 -8 -19 15 -19 15 1 30 11 9 28 14 38 11 10 -2 17 1 17 10 0 8 9
14 20 14 11 0 20 -6 20 -14z m2117 -12 c-9 -9 -28 6 -21 18 4 6 10 6 17 -1 6
-6 8 -13 4 -17z m-807 -9 c0 -8 -4 -15 -10 -15 -5 0 -10 7 -10 15 0 8 5 15 10
15 6 0 10 -7 10 -15z m80 7 c0 -13 -12 -22 -22 -16 -10 6 -1 24 13 24 5 0 9
-4 9 -8z m840 -17 c0 -8 -4 -15 -10 -15 -5 0 -10 7 -10 15 0 8 5 15 10 15 6 0
10 -7 10 -15z m-2713 -31 c-9 -9 -28 6 -21 18 4 6 10 6 17 -1 6 -6 8 -13 4
-17z m219 -20 c19 -20 34 -40 34 -44 0 -3 -14 -16 -30 -29 -33 -24 -38 -20
-44 31 -1 13 -6 29 -10 36 -8 13 -1 42 9 42 4 0 22 -16 41 -36z m272 9 c18
-39 16 -43 -23 -43 -19 0 -35 -4 -35 -10 0 -5 -11 -10 -25 -10 -18 0 -25 5
-25 20 0 15 7 20 25 20 18 0 26 7 31 25 8 33 36 32 52 -2z m1952 -3 c0 -5 -4
-10 -10 -10 -5 0 -10 5 -10 10 0 6 5 10 10 10 6 0 10 -4 10 -10z m-610 -10 c0
-5 -7 -10 -15 -10 -8 0 -15 5 -15 10 0 6 7 10 15 10 8 0 15 -4 15 -10z m270
-35 c0 -8 -4 -15 -9 -15 -13 0 -22 16 -14 24 11 11 23 6 23 -9z m-370 -16 c0
-5 -7 -9 -15 -9 -15 0 -20 12 -9 23 8 8 24 -1 24 -14z m-156 -14 c9 -14 14
-30 11 -35 -9 -14 -64 30 -58 46 8 22 29 16 47 -11z m-1262 -17 c-6 -6 -15 -9
-18 -5 -4 3 -4 14 0 23 5 13 9 15 18 6 9 -9 9 -15 0 -24z m2299 9 c-13 -13
-26 -3 -16 12 3 6 11 8 17 5 6 -4 6 -10 -1 -17z m161 8 c0 -5 -5 -11 -11 -13
-6 -2 -11 4 -11 13 0 9 5 15 11 13 6 -2 11 -8 11 -13z m-2721 -18 c-13 -13
-26 -3 -16 12 3 6 11 8 17 5 6 -4 6 -10 -1 -17z m1609 4 c0 -23 -16 -36 -25
-21 -9 14 1 40 15 40 5 0 10 -9 10 -19z m1171 6 c-1 -12 -15 -9 -19 4 -3 6 1
10 8 8 6 -3 11 -8 11 -12z m-1041 -7 c0 -5 -4 -10 -9 -10 -5 0 -16 -3 -25 -6
-11 -4 -16 -1 -16 10 0 10 9 16 25 16 14 0 25 -4 25 -10z m270 -10 c0 -5 -4
-10 -10 -10 -5 0 -10 5 -10 10 0 6 5 10 10 10 6 0 10 -4 10 -10z m91 -3 c-1
-12 -15 -9 -19 4 -3 6 1 10 8 8 6 -3 11 -8 11 -12z m-1884 -14 c4 -10 -48 -43
-69 -43 -17 0 -7 29 15 45 24 17 48 16 54 -2z m1444 4 c-1 -12 -15 -9 -19 4
-3 6 1 10 8 8 6 -3 11 -8 11 -12z m1079 -2 c0 -8 -4 -15 -10 -15 -5 0 -10 7
-10 15 0 8 5 15 10 15 6 0 10 -7 10 -15z m-3370 -5 c0 -5 -4 -10 -10 -10 -5 0
-10 5 -10 10 0 6 5 10 10 10 6 0 10 -4 10 -10z m450 -36 c0 -16 -26 -19 -35
-4 -4 6 -4 18 -1 27 5 12 9 13 21 3 8 -7 15 -19 15 -26z m1750 26 c0 -5 -4
-10 -10 -10 -5 0 -10 5 -10 10 0 6 5 10 10 10 6 0 10 -4 10 -10z m-2030 -26
c0 -9 -7 -14 -17 -12 -25 5 -28 28 -4 28 12 0 21 -6 21 -16z m160 -15 c0 -5
-7 -9 -15 -9 -15 0 -20 12 -9 23 8 8 24 -1 24 -14z m2150 1 c0 -5 -7 -10 -15
-10 -8 0 -15 5 -15 10 0 6 7 10 15 10 8 0 15 -4 15 -10z m941 -5 c0 -13 -41
-19 -41 -7 0 11 20 22 33 18 5 -1 8 -6 8 -11z m-3991 1 c0 -3 -4 -8 -10 -11
-5 -3 -10 -1 -10 4 0 6 5 11 10 11 6 0 10 -2 10 -4z m650 -16 c0 -5 -4 -10
-10 -10 -5 0 -10 5 -10 10 0 6 5 10 10 10 6 0 10 -4 10 -10z m290 -4 c0 -18
-16 -29 -30 -21 -13 8 -1 35 16 35 8 0 14 -6 14 -14z m220 -1 c0 -8 -4 -15
-10 -15 -5 0 -10 7 -10 15 0 8 5 15 10 15 6 0 10 -7 10 -15z m2360 5 c0 -5 -7
-10 -15 -10 -8 0 -15 5 -15 10 0 6 7 10 15 10 8 0 15 -4 15 -10z m-3650 -16
c0 -8 -4 -12 -10 -9 -5 3 -10 10 -10 16 0 5 5 9 10 9 6 0 10 -7 10 -16z m1517
-16 c-3 -40 -32 -47 -32 -8 0 33 3 40 20 40 10 0 14 -10 12 -32z m80 16 c3 -9
1 -19 -4 -23 -6 -3 -10 -16 -9 -28 0 -12 -3 -23 -9 -25 -5 -2 -11 18 -12 45
-2 36 1 47 13 47 8 0 17 -7 21 -16z m-1417 -9 c0 -8 -4 -15 -10 -15 -5 0 -10
7 -10 15 0 8 5 15 10 15 6 0 10 -7 10 -15z m3328 -8 c2 -10 -3 -17 -12 -17 -9
0 -16 2 -16 4 0 2 -3 12 -6 21 -5 13 -2 16 12 13 10 -2 20 -11 22 -21z m-2523
-6 c7 -12 -12 -24 -25 -16 -11 7 -4 25 10 25 5 0 11 -4 15 -9z m213 -3 c-6
-16 -36 -34 -44 -26 -3 4 -4 14 -1 23 7 17 51 21 45 3z m1962 2 c0 -5 -7 -10
-15 -10 -8 0 -15 5 -15 10 0 6 7 10 15 10 8 0 15 -4 15 -10z m-218 -15 c0 -5
-5 -11 -11 -13 -6 -2 -11 4 -11 13 0 9 5 15 11 13 6 -2 11 -8 11 -13z m-2282
-9 c0 -8 -4 -17 -9 -21 -12 -7 -24 12 -16 25 9 15 25 12 25 -4z m428 3 c-2 -6
-8 -10 -13 -10 -5 0 -11 4 -13 10 -2 6 4 11 13 11 9 0 15 -5 13 -11z m2232 1
c0 -5 -4 -10 -10 -10 -5 0 -10 5 -10 10 0 6 5 10 10 10 6 0 10 -4 10 -10z
m-1995 -11 c10 -15 -1 -23 -20 -15 -9 3 -13 10 -10 16 8 13 22 13 30 -1z
m1768 -20 c-6 -6 -23 -9 -39 -7 l-29 3 30 17 c31 17 59 8 38 -13z m737 13 c0
-13 -12 -22 -22 -16 -10 6 -1 24 13 24 5 0 9 -4 9 -8z m-3960 -12 c0 -5 -7
-10 -15 -10 -8 0 -15 5 -15 10 0 6 7 10 15 10 8 0 15 -4 15 -10z m965 -18 c0
-18 -20 -15 -23 4 -3 10 1 15 10 12 7 -3 13 -10 13 -16z m119 -11 c3 -4 -3
-16 -14 -26 -19 -17 -20 -17 -20 2 0 29 22 45 34 24z m-219 -11 c3 -5 1 -10
-4 -10 -6 0 -11 5 -11 10 0 6 2 10 4 10 3 0 8 -4 11 -10z m675 -5 c0 -8 -7
-15 -15 -15 -16 0 -20 12 -8 23 11 12 23 8 23 -8z m1480 5 c0 -5 -4 -10 -10
-10 -5 0 -10 5 -10 10 0 6 5 10 10 10 6 0 10 -4 10 -10z m1122 -5 c0 -5 -5
-11 -11 -13 -6 -2 -11 4 -11 13 0 9 5 15 11 13 6 -2 11 -8 11 -13z m-1182 -5
c0 -5 -4 -10 -10 -10 -5 0 -10 5 -10 10 0 6 5 10 10 10 6 0 10 -4 10 -10z
m-1635 -10 c-3 -5 -10 -10 -16 -10 -5 0 -9 5 -9 10 0 6 7 10 16 10 8 0 12 -4
9 -10z m2025 -25 c0 -8 -4 -15 -10 -15 -5 0 -10 7 -10 15 0 8 5 15 10 15 6 0
10 -7 10 -15z m960 -5 c0 -5 -4 -10 -10 -10 -5 0 -10 5 -10 10 0 6 5 10 10 10
6 0 10 -4 10 -10z m-716 -21 c-3 -5 -10 -7 -15 -3 -5 3 -7 10 -3 15 3 5 10 7
15 3 5 -3 7 -10 3 -15z m-2466 -22 c2 -10 -3 -17 -12 -17 -18 0 -29 16 -21 31
9 14 29 6 33 -14z m-73 -6 c7 -12 -12 -24 -25 -16 -11 7 -4 25 10 25 5 0 11
-4 15 -9z m2725 -1 c0 -5 -4 -10 -10 -10 -5 0 -10 5 -10 10 0 6 5 10 10 10 6
0 10 -4 10 -10z m-2602 -18 c2 -7 -3 -12 -12 -12 -9 0 -16 7 -16 16 0 17 22
14 28 -4z m57 -61 c7 -12 -12 -24 -25 -16 -11 7 -4 25 10 25 5 0 11 -4 15 -9z
m165 -31 c0 -5 -2 -10 -4 -10 -3 0 -8 5 -11 10 -3 6 -1 10 4 10 6 0 11 -4 11
-10z m1536 -1 c3 -6 15 -9 25 -6 29 8 32 -9 4 -27 -40 -26 -65 -21 -65 14 0
30 22 42 36 19z m304 6 c0 -11 -34 -44 -42 -39 -13 9 -9 24 7 24 8 0 15 5 15
10 0 6 5 10 10 10 6 0 10 -2 10 -5z m870 -5 c0 -5 -4 -10 -10 -10 -5 0 -10 5
-10 10 0 6 5 10 10 10 6 0 10 -4 10 -10z m-3552 -33 c7 -33 -7 -67 -27 -67
-25 0 -46 56 -29 77 15 19 52 12 56 -10z m622 9 c0 -3 -4 -8 -10 -11 -5 -3
-10 -1 -10 4 0 6 5 11 10 11 6 0 10 -2 10 -4z m180 0 c0 -3 -4 -8 -10 -11 -5
-3 -10 -1 -10 4 0 6 5 11 10 11 6 0 10 -2 10 -4z m-1330 -10 c0 -3 -4 -8 -10
-11 -5 -3 -10 -1 -10 4 0 6 5 11 10 11 6 0 10 -2 10 -4z m4220 -22 c0 -8 -4
-12 -10 -9 -5 3 -10 10 -10 16 0 5 5 9 10 9 6 0 10 -7 10 -16z m-2850 -9 c0
-8 -4 -15 -10 -15 -5 0 -10 7 -10 15 0 8 5 15 10 15 6 0 10 -7 10 -15z m2254
-6 c-3 -5 -10 -7 -15 -3 -5 3 -7 10 -3 15 3 5 10 7 15 3 5 -3 7 -10 3 -15z
m-584 1 c0 -5 -4 -10 -10 -10 -5 0 -10 5 -10 10 0 6 5 10 10 10 6 0 10 -4 10
-10z m1025 0 c-3 -5 -10 -10 -16 -10 -5 0 -9 5 -9 10 0 6 7 10 16 10 8 0 12
-4 9 -10z m-2835 -15 c0 -8 -7 -15 -15 -15 -16 0 -20 12 -8 23 11 12 23 8 23
-8z m1700 -6 c0 -5 -7 -9 -15 -9 -15 0 -20 12 -9 23 8 8 24 -1 24 -14z m1410
11 c0 -5 -4 -10 -10 -10 -5 0 -10 5 -10 10 0 6 5 10 10 10 6 0 10 -4 10 -10z
m-960 -10 c0 -5 -4 -10 -10 -10 -5 0 -10 5 -10 10 0 6 5 10 10 10 6 0 10 -4
10 -10z m789 -6 c2 -2 2 -6 0 -9 -8 -7 -49 7 -49 17 0 8 38 2 49 -8z m-2819
-4 c0 -5 -7 -10 -15 -10 -8 0 -15 5 -15 10 0 6 7 10 15 10 8 0 15 -4 15 -10z
m1813 -3 c4 3 7 2 7 -4 0 -6 -7 -16 -15 -23 -9 -8 -15 -8 -15 -2 0 6 -3 19 -7
29 -6 15 -4 16 9 6 8 -7 18 -10 21 -6z m-1947 -45 c-4 -3 -12 0 -19 7 -9 9 -9
14 3 21 11 7 16 5 18 -6 2 -9 1 -18 -2 -22z m102 -8 c-4 -23 -26 -30 -34 -10
-8 20 15 51 29 37 5 -5 7 -17 5 -27z m1609 0 c-9 -9 -28 6 -21 18 4 6 10 6 17
-1 6 -6 8 -13 4 -17z m-3069 4 c17 -17 15 -22 -14 -57 -18 -21 -35 -31 -54
-31 -16 0 -32 -4 -35 -10 -12 -20 -21 -9 -17 20 3 22 13 35 36 47 17 9 35 22
39 29 10 17 29 18 45 2z m4382 2 c0 -5 -4 -10 -10 -10 -5 0 -10 5 -10 10 0 6
5 10 10 10 6 0 10 -4 10 -10z m-1079 -43 c-1 -12 -15 -9 -19 4 -3 6 1 10 8 8
6 -3 11 -8 11 -12z m1059 3 c0 -5 -4 -10 -10 -10 -5 0 -10 5 -10 10 0 6 5 10
10 10 6 0 10 -4 10 -10z m-1290 -15 c0 -8 -4 -15 -10 -15 -5 0 -10 7 -10 15 0
8 5 15 10 15 6 0 10 -7 10 -15z m-4405 -15 c0 -22 -29 -18 -33 3 -3 14 1 18
15 15 10 -2 18 -10 18 -18z m2525 10 c0 -5 -4 -10 -10 -10 -5 0 -10 5 -10 10
0 6 5 10 10 10 6 0 10 -4 10 -10z m-775 -9 c3 -5 1 -12 -5 -16 -5 -3 -10 1
-10 9 0 18 6 21 15 7z m2645 -26 c0 -8 -4 -15 -10 -15 -5 0 -10 7 -10 15 0 8
5 15 10 15 6 0 10 -7 10 -15z m150 5 c0 -5 -4 -10 -10 -10 -5 0 -10 5 -10 10
0 6 5 10 10 10 6 0 10 -4 10 -10z m1123 -12 c6 -21 2 -36 -7 -27 -10 11 -16
49 -8 49 5 0 12 -10 15 -22z m-513 2 c0 -5 -4 -10 -10 -10 -5 0 -10 5 -10 10
0 6 5 10 10 10 6 0 10 -4 10 -10z m-730 -20 c0 -5 -4 -10 -10 -10 -5 0 -10 5
-10 10 0 6 5 10 10 10 6 0 10 -4 10 -10z m91 -33 c-1 -12 -15 -9 -19 4 -3 6 1
10 8 8 6 -3 11 -8 11 -12z m444 3 c3 -5 -1 -10 -10 -10 -9 0 -13 5 -10 10 3 6
8 10 10 10 2 0 7 -4 10 -10z m-3415 -14 c0 -3 -4 -8 -10 -11 -5 -3 -10 -1 -10
4 0 6 5 11 10 11 6 0 10 -2 10 -4z m2820 -30 c0 -21 -21 -31 -30 -15 -5 7 -6
17 -4 21 9 14 34 9 34 -6z m130 -22 c0 -17 -22 -14 -28 4 -2 7 3 12 12 12 9 0
16 -7 16 -16z m-1910 -3 c0 -6 -4 -13 -10 -16 -5 -3 -10 1 -10 9 0 9 5 16 10
16 6 0 10 -4 10 -9z m2980 -1 c0 -5 -4 -10 -10 -10 -5 0 -10 5 -10 10 0 6 5
10 10 10 6 0 10 -4 10 -10z m-1147 -15 c1 -5 -6 -11 -15 -13 -11 -2 -18 3 -18
13 0 17 30 18 33 0z m43 -16 c3 -6 1 -16 -5 -22 -9 -9 -14 -8 -21 3 -9 15 -4
30 10 30 5 0 12 -5 16 -11z m1134 -15 c0 -8 -4 -12 -10 -9 -5 3 -10 10 -10 16
0 5 5 9 10 9 6 0 10 -7 10 -16z m-1182 -31 c-2 -10 -10 -18 -18 -18 -8 0 -16
8 -18 18 -2 12 3 17 18 17 15 0 20 -5 18 -17z m1422 -1 c0 -13 -12 -22 -22
-16 -10 6 -1 24 13 24 5 0 9 -4 9 -8z m-280 -42 c0 -5 -4 -10 -10 -10 -5 0
-10 5 -10 10 0 6 5 10 10 10 6 0 10 -4 10 -10z m-1133 -21 c14 -14 6 -39 -12
-39 -18 0 -28 17 -21 35 6 18 18 19 33 4z m223 -34 c0 -8 -4 -15 -9 -15 -13 0
-22 16 -14 24 11 11 23 6 23 -9z m-1892 -33 c25 -5 25 -29 0 -24 -9 1 -18 -4
-22 -13 -11 -30 -34 -16 -34 21 0 29 3 34 17 28 9 -3 26 -9 39 -12z m1700 -4
c-2 -13 -10 -23 -18 -23 -8 0 -16 10 -18 23 -3 17 2 22 18 22 16 0 21 -5 18
-22z m792 6 c0 -8 -4 -12 -10 -9 -5 3 -10 10 -10 16 0 5 5 9 10 9 6 0 10 -7
10 -16z m105 -24 c-3 -5 -12 -10 -18 -10 -7 0 -6 4 3 10 19 12 23 12 15 0z
m-978 -24 c4 -7 19 -13 33 -12 19 1 26 -5 28 -21 2 -16 -2 -23 -12 -23 -9 0
-25 -5 -35 -12 -10 -6 -25 -9 -33 -5 -16 6 -32 63 -22 78 8 14 32 11 41 -5z
m768 5 c3 -5 1 -12 -5 -16 -5 -3 -10 1 -10 9 0 18 6 21 15 7z m-419 -12 c10
-17 -13 -36 -27 -22 -12 12 -4 33 11 33 5 0 12 -5 16 -11z m154 1 c0 -5 -7
-10 -16 -10 -8 0 -12 5 -9 10 3 6 10 10 16 10 5 0 9 -4 9 -10z m-273 -16 c9
-23 -13 -40 -32 -24 -12 10 -13 16 -4 26 15 18 28 18 36 -2z m473 -14 c0 -5
-4 -10 -10 -10 -5 0 -10 5 -10 10 0 6 5 10 10 10 6 0 10 -4 10 -10z m-2320
-16 c0 -8 -5 -12 -10 -9 -6 4 -8 11 -5 16 9 14 15 11 15 -7z m2990 6 c0 -5 -4
-10 -10 -10 -5 0 -10 5 -10 10 0 6 5 10 10 10 6 0 10 -4 10 -10z m-1188 -20
c7 -11 18 -20 25 -20 18 0 16 -39 -2 -47 -9 -3 -24 2 -33 11 -9 9 -26 23 -36
30 -24 16 -15 46 14 46 11 0 25 -9 32 -20z m215 5 c7 -20 -2 -29 -21 -22 -9 4
-13 13 -10 22 8 19 23 19 31 0z m-1977 -5 c0 -5 -4 -10 -10 -10 -5 0 -10 5
-10 10 0 6 5 10 10 10 6 0 10 -4 10 -10z m2111 -15 c-1 -15 -24 -12 -29 3 -3
9 2 13 12 10 10 -1 17 -7 17 -13z m-214 -31 c8 -21 -13 -42 -28 -27 -13 13 -5
43 11 43 6 0 13 -7 17 -16z m429 -41 c-5 -4 -11 -2 -13 5 -3 6 -11 12 -19 12
-15 0 -19 12 -7 24 4 3 16 -2 27 -13 11 -11 16 -24 12 -28z m-269 -1 c2 -24
-1 -32 -13 -32 -10 0 -14 6 -11 14 3 7 1 18 -5 24 -6 6 -7 15 -3 22 12 20 30
5 32 -28z m-532 3 c0 -30 -39 -27 -43 3 -3 20 0 23 20 20 15 -2 23 -10 23 -23z
m-206 -14 c19 -12 6 -41 -19 -41 -13 0 -20 7 -20 18 0 31 14 39 39 23z m1585
-22 c-3 -5 -10 -7 -15 -3 -5 3 -7 10 -3 15 3 5 10 7 15 3 5 -3 7 -10 3 -15z
m-44 -5 c0 -8 -4 -12 -10 -9 -5 3 -10 10 -10 16 0 5 5 9 10 9 6 0 10 -7 10
-16z m-370 -4 c0 -5 -4 -10 -10 -10 -5 0 -10 5 -10 10 0 6 5 10 10 10 6 0 10
-4 10 -10z m-2475 -20 c3 -5 -1 -10 -10 -10 -9 0 -13 5 -10 10 3 6 8 10 10 10
2 0 7 -4 10 -10z m1685 -10 c0 -13 -7 -20 -20 -20 -19 0 -27 20 -13 33 13 14
33 6 33 -13z m135 -10 c0 -8 -8 -16 -17 -18 -13 -2 -18 3 -18 18 0 15 5 20 18
18 9 -2 17 -10 17 -18z m-2399 -1 c3 -6 -1 -18 -10 -27 -15 -15 -17 -15 -32 0
-19 19 -11 38 16 38 10 0 22 -5 26 -11z m3074 -14 c0 -8 -4 -15 -10 -15 -5 0
-10 7 -10 15 0 8 5 15 10 15 6 0 10 -7 10 -15z m-2490 -15 c0 -5 -4 -10 -10
-10 -5 0 -10 5 -10 10 0 6 5 10 10 10 6 0 10 -4 10 -10z m2890 -10 c0 -5 -4
-10 -10 -10 -5 0 -10 5 -10 10 0 6 5 10 10 10 6 0 10 -4 10 -10z m-4932 -117
c-5 -26 -38 -29 -38 -4 0 15 6 21 21 21 14 0 19 -5 17 -17z m3670 -16 c2 -12
-3 -17 -17 -17 -12 0 -21 6 -21 13 0 31 32 34 38 4z m192 -17 c0 -11 -7 -20
-15 -20 -8 0 -15 9 -15 20 0 11 7 20 15 20 8 0 15 -9 15 -20z m-143 -36 c8
-21 -13 -42 -28 -27 -13 13 -5 43 11 43 6 0 13 -7 17 -16z m-1737 -84 c0 -11
-4 -20 -10 -20 -5 0 -10 9 -10 20 0 11 5 20 10 20 6 0 10 -9 10 -20z m-20 -48
c0 -10 -4 -10 -22 0 -13 7 -25 14 -26 15 -2 1 -1 12 3 24 l7 22 19 -24 c10
-13 19 -30 19 -37z m85 -41 c3 -5 1 -12 -5 -16 -5 -3 -10 1 -10 9 0 18 6 21
15 7z m-52 -33 c4 -12 4 -24 2 -26 -6 -6 -35 25 -35 37 0 20 28 11 33 -11z
m-75 -87 c-5 -24 -38 -27 -38 -3 0 10 3 21 6 25 11 11 35 -5 32 -22z m55 -128
c-7 -2 -19 -2 -25 0 -7 3 -2 5 12 5 14 0 19 -2 13 -5z m1992 -3 c-3 -5 -10
-10 -16 -10 -5 0 -9 5 -9 10 0 6 7 10 16 10 8 0 12 -4 9 -10z m-50 -50 c3 -5
-1 -10 -10 -10 -9 0 -13 5 -10 10 3 6 8 10 10 10 2 0 7 -4 10 -10z m-2322 -20
c11 -10 -1 -50 -15 -50 -19 0 -48 32 -48 53 0 16 5 18 28 12 15 -3 31 -10 35
-15z m4328 -10 c195 -19 419 -75 582 -144 l37 -16 0 -210 0 -210 -70 35 c-389
196 -843 229 -1135 82 -173 -86 -311 -237 -389 -425 -126 -299 -128 -763 -7
-1061 118 -290 338 -466 646 -516 274 -45 656 26 903 167 l52 29 0 -208 0
-209 -47 -18 c-250 -96 -392 -130 -608 -147 -390 -30 -730 50 -970 230 -361
270 -535 661 -535 1200 1 595 223 1027 650 1264 232 129 572 188 891 157z
m-2001 -20 c0 -5 -4 -10 -10 -10 -5 0 -10 5 -10 10 0 6 5 10 10 10 6 0 10 -4
10 -10z m280 -140 c0 -5 -4 -10 -10 -10 -5 0 -10 5 -10 10 0 6 5 10 10 10 6 0
10 -4 10 -10z m-400 -49 c0 -6 -4 -13 -10 -16 -5 -3 -10 1 -10 9 0 9 5 16 10
16 6 0 10 -4 10 -9z m-70 -36 c0 -8 4 -15 8 -15 5 0 17 -7 28 -15 18 -14 16
-15 -24 -13 -48 2 -56 9 -47 38 7 23 35 27 35 5z m390 -15 c0 -5 -7 -10 -15
-10 -8 0 -15 5 -15 10 0 6 7 10 15 10 8 0 15 -4 15 -10z m-4544 -37 c-11 -11
-19 6 -11 24 8 17 8 17 12 0 3 -10 2 -21 -1 -24z m4334 1 c0 -8 -10 -14 -25
-14 -29 0 -33 15 -8 29 21 11 33 6 33 -15z m273 11 c4 -8 2 -17 -3 -20 -6 -4
-10 -4 -10 -1 0 2 -3 11 -6 20 -3 9 -2 16 4 16 5 0 12 -7 15 -15z m47 -5 c0
-5 -4 -10 -10 -10 -5 0 -10 5 -10 10 0 6 5 10 10 10 6 0 10 -4 10 -10z m78
-20 c12 -16 22 -34 22 -40 0 -15 -17 -12 -24 5 -5 13 -9 13 -25 3 -26 -16 -33
-8 -25 30 8 40 24 41 52 2z m-5378 13 c-1 -28 -15 -53 -30 -53 -17 0 -34 36
-24 52 6 10 54 11 54 1z m5010 -28 c0 -8 -4 -15 -10 -15 -5 0 -10 7 -10 15 0
8 5 15 10 15 6 0 10 -7 10 -15z m68 -45 c2 -13 11 -29 19 -36 9 -6 13 -16 9
-23 -10 -16 -46 15 -46 40 0 10 -4 21 -10 24 -17 10 -11 27 8 23 9 -2 19 -14
20 -28z m-333 4 c-42 -33 -55 -36 -55 -15 0 19 16 28 55 30 l20 0 -20 -15z
m145 -17 c-1 -21 -1 -21 -15 -3 -8 10 -12 23 -9 28 9 14 24 -2 24 -25z m60 14
c0 -6 -4 -13 -10 -16 -5 -3 -10 1 -10 9 0 9 5 16 10 16 6 0 10 -4 10 -9z m118
-73 c-2 -15 -11 -24 -25 -26 -26 -4 -28 1 -13 29 15 27 42 25 38 -3z m-5230
-14 c3 -24 -22 -49 -42 -41 -8 3 -20 15 -26 27 -9 17 -7 22 12 30 33 13 53 8
56 -16z m4864 -29 c-3 -17 -10 -25 -21 -23 -18 4 -16 38 2 50 18 11 25 1 19
-27z m-4625 4 c13 -13 5 -49 -12 -49 -19 0 -38 28 -31 45 6 18 27 20 43 4z
m4781 -11 c-3 -7 -15 -14 -29 -16 -24 -4 -24 -3 -4 12 24 19 38 20 33 4z m322
-37 c0 -14 -18 -23 -30 -16 -6 4 -8 11 -5 16 8 12 35 12 35 0z m-108 -18 c23
-21 23 -33 0 -33 -21 0 -42 18 -42 37 0 18 20 16 42 -4z m-306 -25 c8 -26 32
-47 54 -48 9 0 23 -9 33 -20 12 -14 25 -18 47 -15 16 3 44 7 60 10 44 7 49
-17 11 -54 -17 -17 -31 -35 -31 -42 0 -7 -24 -10 -77 -7 -43 3 -77 8 -76 11 6
26 14 30 58 29 28 0 43 2 35 5 -8 2 -24 9 -35 13 -11 5 -38 11 -59 12 -41 3
-65 28 -27 28 29 0 26 18 -4 26 -21 5 -25 12 -25 40 0 40 24 47 36 12z m148
-4 c18 -7 12 -24 -10 -24 -8 0 -14 7 -14 15 0 17 2 18 24 9z m111 -24 c3 -5 1
-10 -4 -10 -6 0 -11 5 -11 10 0 6 2 10 4 10 3 0 8 -4 11 -10z m57 -42 c-15
-15 -26 -4 -18 18 5 13 9 15 18 6 9 -9 9 -15 0 -24z m-352 2 c0 -10 -9 -24
-21 -31 -15 -8 -18 -14 -10 -22 18 -18 13 -27 -14 -27 -37 0 -43 27 -11 56 14
14 26 29 26 34 0 6 7 10 15 10 8 0 15 -9 15 -20z m420 -1 c0 -5 -7 -9 -15 -9
-15 0 -20 12 -9 23 8 8 24 -1 24 -14z m-510 -19 c0 -5 -4 -10 -10 -10 -5 0
-10 5 -10 10 0 6 5 10 10 10 6 0 10 -4 10 -10z m523 -30 c21 0 27 -4 27 -20 0
-13 -7 -20 -20 -20 -15 0 -20 -7 -20 -24 0 -24 -1 -24 -27 -10 -16 7 -36 14
-46 14 -26 0 -32 28 -11 51 13 15 25 19 44 14 14 -3 37 -6 53 -5z m-126 -26
c6 -16 -12 -34 -34 -34 -16 0 -17 22 -1 38 16 16 27 15 35 -4z m263 -49 c0 -8
-4 -15 -9 -15 -13 0 -22 16 -14 24 11 11 23 6 23 -9z m-1677 -1452 c-7 -2 -19
-2 -25 0 -7 3 -2 5 12 5 14 0 19 -2 13 -5z"/>
<path d="M4910 9380 c0 -13 18 -22 24 -11 3 5 -1 11 -9 15 -8 3 -15 1 -15 -4z"/>
<path d="M4968 9349 c-10 -5 -18 -19 -18 -29 0 -11 -4 -20 -10 -20 -5 0 -10
-4 -10 -10 0 -19 32 -10 37 10 6 22 25 28 22 8 -3 -28 2 -38 21 -38 11 0 20 6
20 14 0 8 3 21 6 30 4 11 1 16 -10 16 -9 0 -19 7 -22 15 -7 17 -13 18 -36 4z"/>
<path d="M4880 9221 c0 -10 30 -24 37 -17 3 2 -5 9 -16 16 -12 6 -21 7 -21 1z"/>
<path d="M4878 9053 c7 -3 16 -2 19 1 4 3 -2 6 -13 5 -11 0 -14 -3 -6 -6z"/>
<path d="M4965 9040 c3 -5 8 -10 11 -10 2 0 4 5 4 10 0 6 -5 10 -11 10 -5 0
-7 -4 -4 -10z"/>
<path d="M5130 8885 c-7 -8 -9 -22 -6 -32 6 -15 9 -15 28 4 11 12 17 26 14 32
-10 15 -21 14 -36 -4z"/>
<path d="M5027 8863 c-12 -12 -7 -22 8 -17 8 4 15 10 15 15 0 11 -14 12 -23 2z"/>
<path d="M5290 8804 c0 -8 5 -12 10 -9 6 4 8 11 5 16 -9 14 -15 11 -15 -7z"/>
<path d="M5214 8764 c5 -23 2 -33 -9 -38 -8 -3 -15 -11 -15 -17 0 -8 4 -8 14
1 8 6 25 11 38 10 13 -1 28 -2 34 -1 14 1 26 41 13 41 -5 0 -9 6 -9 14 0 8
-14 15 -36 18 -35 4 -35 4 -30 -28z m66 -20 c0 -8 -5 -12 -10 -9 -6 4 -8 11
-5 16 9 14 15 11 15 -7z"/>
<path d="M5164 8764 c3 -9 6 -18 6 -20 0 -2 5 -4 10 -4 6 0 10 9 10 20 0 12
-7 20 -16 20 -11 0 -14 -5 -10 -16z"/>
<path d="M5261 8523 c-13 -13 -19 -23 -13 -23 6 0 17 -3 26 -6 10 -4 16 -1 16
9 0 9 7 17 15 19 13 2 13 5 -2 13 -14 8 -23 6 -42 -12z"/>
<path d="M5636 8523 c-31 -31 -22 -48 17 -31 32 16 40 33 23 47 -10 8 -20 4
-40 -16z"/>
<path d="M5053 8510 c1 -11 7 -20 13 -20 7 0 10 8 7 20 -3 11 -9 20 -14 20 -4
0 -7 -9 -6 -20z"/>
<path d="M5058 8453 c7 -3 16 -2 19 1 4 3 -2 6 -13 5 -11 0 -14 -3 -6 -6z"/>
<path d="M5540 8433 c0 -10 -3 -28 -6 -41 -5 -18 -3 -21 11 -16 10 4 15 14 12
25 -3 11 -1 22 4 25 11 6 2 24 -12 24 -5 0 -9 -8 -9 -17z"/>
<path d="M5220 8420 c0 -19 31 -23 48 -6 15 15 14 16 -16 16 -18 0 -32 -5 -32
-10z"/>
<path d="M5065 8400 c3 -5 10 -10 16 -10 5 0 9 5 9 10 0 6 -7 10 -16 10 -8 0
-12 -4 -9 -10z"/>
<path d="M5149 8373 c-2 -36 3 -78 10 -83 5 -3 11 -31 14 -63 5 -49 3 -59 -12
-65 -16 -7 -16 -8 1 -24 17 -17 18 -17 18 5 0 12 11 30 25 40 23 16 24 16 34
0 5 -10 13 -15 17 -11 10 11 -14 36 -39 40 -18 2 -22 9 -21 40 1 22 -3 36 -10
35 -23 -4 -10 27 14 33 21 5 22 7 7 13 -9 3 -22 18 -27 32 -11 29 -29 33 -31
8z"/>
<path d="M5247 8364 c-9 -10 16 -32 30 -27 7 3 13 0 13 -6 0 -5 9 -15 19 -20
16 -9 18 -8 14 9 -4 14 0 20 10 20 19 0 35 -22 20 -27 -11 -4 -5 -53 6 -53 24
2 55 50 32 50 -5 0 -11 9 -14 20 -4 14 -14 20 -35 20 -17 0 -34 5 -37 10 -7
11 -48 14 -58 4z"/>
<path d="M5536 8344 c-4 -9 -4 -19 -1 -22 2 -3 7 3 11 12 4 9 4 19 1 22 -2 3
-7 -3 -11 -12z"/>
<path d="M5240 8295 c0 -16 6 -25 15 -25 16 0 19 9 9 34 -9 25 -24 19 -24 -9z"/>
<path d="M5080 8280 c6 -11 15 -20 20 -20 6 0 5 9 -2 20 -7 11 -16 20 -21 20
-4 0 -3 -9 3 -20z"/>
<path d="M5037 8283 c-4 -3 -7 -11 -7 -17 0 -6 5 -5 12 2 6 6 9 14 7 17 -3 3
-9 2 -12 -2z"/>
<path d="M5264 8246 c-4 -9 -4 -20 0 -23 3 -4 12 -1 18 5 9 9 9 15 0 24 -9 9
-13 7 -18 -6z"/>
<path d="M5023 8243 c-7 -3 -13 -8 -13 -13 0 -11 28 -21 34 -12 7 12 -8 29
-21 25z"/>
<path d="M4920 8212 c0 -10 41 -35 47 -28 7 7 -23 36 -36 36 -6 0 -11 -3 -11
-8z"/>
<path d="M5080 8208 c0 -9 5 -20 10 -23 13 -8 13 5 0 25 -8 13 -10 13 -10 -2z"/>
<path d="M5048 8144 c-8 -8 24 -62 40 -69 16 -6 52 12 52 25 0 6 -9 10 -20 10
-25 0 -26 16 -2 29 13 8 9 10 -24 11 -22 0 -43 -3 -46 -6z"/>
<path d="M5020 8091 c0 -5 5 -13 10 -16 6 -3 10 -2 10 4 0 5 -4 13 -10 16 -5
3 -10 2 -10 -4z"/>
<path d="M4897 8040 c-3 -11 -2 -20 3 -20 4 0 11 -8 14 -17 5 -11 -2 -24 -20
-38 -31 -25 -21 -38 21 -26 19 4 25 10 17 15 -21 13 -13 29 12 24 18 -4 23 -1
19 9 -3 8 -8 11 -11 9 -9 -10 -32 16 -32 35 0 26 -17 32 -23 9z"/>
<path d="M5020 8045 c0 -8 4 -15 10 -15 5 0 7 7 4 15 -4 8 -8 15 -10 15 -2 0
-4 -7 -4 -15z"/>
<path d="M5906 8032 c-3 -6 -1 -14 5 -17 14 -9 20 -2 10 14 -6 8 -11 9 -15 3z"/>
<path d="M5106 7994 c-3 -8 -14 -14 -24 -14 -30 0 -61 -36 -54 -62 l7 -23 3
23 c2 14 10 22 24 22 18 0 20 -5 16 -44 -6 -47 6 -62 33 -45 10 6 10 9 2 9
-15 0 -17 36 -3 45 6 4 5 14 -3 26 -10 18 -9 23 11 36 25 18 28 29 8 36 -8 3
-17 -1 -20 -9z"/>
<path d="M5930 7950 c-23 -23 -26 -42 -6 -34 19 7 50 54 36 54 -5 0 -19 -9
-30 -20z"/>
<path d="M5988 7953 c7 -3 16 -2 19 1 4 3 -2 6 -13 5 -11 0 -14 -3 -6 -6z"/>
<path d="M5964 7896 c-12 -8 -30 -15 -40 -15 -46 -1 -60 -5 -76 -18 -13 -12
-24 -13 -47 -5 -27 9 -32 8 -41 -9 -6 -10 -18 -19 -28 -19 -21 0 -43 -48 -36
-77 4 -15 1 -25 -8 -28 -22 -9 -11 -85 12 -85 23 0 30 20 16 42 -15 25 7 47
28 28 9 -7 13 -16 11 -21 -3 -4 0 -17 6 -27 17 -27 4 -56 -21 -49 -13 3 -20 0
-20 -9 0 -8 9 -14 20 -14 31 0 35 -27 11 -72 -12 -23 -20 -42 -19 -44 2 -1 15
0 30 3 23 4 27 9 22 29 -3 13 -4 34 0 47 5 22 9 23 86 21 45 -1 84 -5 87 -8 4
-3 15 -6 25 -6 15 0 17 4 10 18 -19 36 10 57 34 25 17 -24 29 -9 29 35 0 28 4
37 16 36 13 -1 15 4 8 30 -24 95 -38 114 -72 99 -47 -21 -64 20 -27 67 31 40
23 53 -16 26z m-36 -123 c2 -8 -5 -13 -17 -13 -12 0 -21 6 -21 16 0 18 31 15
38 -3z m-81 -37 c4 -8 17 -15 28 -18 25 -4 27 -41 2 -46 -12 -3 -20 4 -24 17
-3 14 -13 21 -29 21 -23 0 -32 19 -17 33 11 12 32 8 40 -7z m213 -15 c0 -22
-47 -38 -63 -22 -18 18 1 41 33 41 23 0 30 -5 30 -19z m-27 -53 c6 -19 -3 -38
-18 -38 -18 0 -28 17 -21 35 7 18 33 20 39 3z m-215 -41 c2 -12 -3 -17 -17
-17 -12 0 -21 6 -21 13 0 31 32 34 38 4z"/>
<path d="M4943 7892 c-31 -3 -48 -22 -20 -22 8 0 24 -11 37 -25 13 -14 29 -25
36 -25 12 0 14 30 3 40 -3 3 -10 12 -15 20 -6 10 -21 14 -41 12z"/>
<path d="M5705 7870 c4 -6 11 -8 16 -5 14 9 11 15 -7 15 -8 0 -12 -5 -9 -10z"/>
<path d="M6182 7858 c6 -18 28 -21 28 -4 0 9 -7 16 -16 16 -9 0 -14 -5 -12
-12z"/>
<path d="M6060 7851 c0 -5 5 -13 10 -16 6 -3 10 -2 10 4 0 5 -4 13 -10 16 -5
3 -10 2 -10 -4z"/>
<path d="M6080 7805 c0 -9 6 -12 15 -9 8 4 15 7 15 9 0 2 -7 5 -15 9 -9 3 -15
0 -15 -9z"/>
<path d="M5631 7758 c-1 -17 -7 -28 -15 -28 -8 0 -23 -18 -33 -40 -19 -42 -49
-53 -55 -20 -2 15 -7 17 -18 10 -13 -8 -12 -11 5 -24 11 -8 37 -18 57 -21 21
-4 40 -11 44 -16 15 -25 24 -5 18 42 -5 34 -3 53 4 58 8 5 8 17 3 36 l-9 30
-1 -27z"/>
<path d="M4990 7749 c0 -5 5 -7 10 -4 6 3 10 8 10 11 0 2 -4 4 -10 4 -5 0 -10
-5 -10 -11z"/>
<path d="M6260 7694 c0 -14 3 -14 15 -4 8 7 15 14 15 16 0 2 -7 4 -15 4 -8 0
-15 -7 -15 -16z"/>
<path d="M4873 7660 c3 -11 1 -18 -3 -15 -5 3 -8 -4 -7 -15 1 -22 12 -26 21
-7 3 6 4 0 2 -15 -2 -17 1 -28 9 -28 12 0 12 13 0 68 -4 17 -12 32 -17 32 -6
0 -8 -9 -5 -20z"/>
<path d="M5187 7664 c-10 -11 13 -34 34 -34 10 0 21 -9 24 -20 7 -22 34 -28
36 -7 1 13 -2 51 -4 53 -8 7 -84 13 -90 8z"/>
<path d="M6225 7631 c-3 -5 -1 -12 5 -16 5 -3 10 1 10 9 0 18 -6 21 -15 7z"/>
<path d="M5475 7590 c3 -5 8 -10 11 -10 2 0 4 5 4 10 0 6 -5 10 -11 10 -5 0
-7 -4 -4 -10z"/>
<path d="M5355 7560 c-17 -7 -14 -10 10 -10 3 0 15 -5 27 -11 18 -10 20 -9 15
6 -4 9 -7 19 -7 21 0 6 -23 3 -45 -6z"/>
<path d="M5604 7527 c-3 -9 -12 -17 -19 -17 -8 0 -10 -9 -7 -27 4 -20 7 -23
10 -10 2 9 12 17 22 17 27 0 35 19 17 38 -15 14 -17 14 -23 -1z"/>
<path d="M5474 7516 c-10 -8 -17 -17 -14 -19 3 -3 14 1 24 9 11 7 17 16 15 19
-3 3 -14 -2 -25 -9z"/>
<path d="M5848 7490 c-9 -11 -20 -36 -24 -57 -7 -35 -6 -36 9 -21 9 9 21 18
27 20 6 2 15 20 19 41 10 42 -2 48 -31 17z"/>
<path d="M6051 7501 c-8 -5 -9 -11 -3 -15 5 -3 12 1 16 9 6 17 6 18 -13 6z"/>
<path d="M5593 7413 c-1 -18 3 -36 8 -39 5 -3 9 1 9 9 0 8 7 20 15 27 21 17
19 27 -8 32 -20 4 -23 0 -24 -29z"/>
<path d="M5673 7405 c-10 -22 -9 -25 7 -25 13 0 16 6 12 25 -2 14 -5 25 -6 25
0 0 -6 -11 -13 -25z"/>
<path d="M6018 7392 c-16 -31 -13 -52 7 -52 8 0 14 16 17 40 4 47 -5 51 -24
12z"/>
<path d="M5893 7378 c-19 -24 -24 -38 -15 -38 5 0 14 11 20 25 13 27 10 32 -5
13z"/>
<path d="M5360 7370 c-8 -5 -12 -11 -10 -14 3 -2 14 2 24 10 22 15 10 19 -14
4z"/>
<path d="M5716 7365 c4 -8 10 -15 15 -15 5 0 9 7 9 15 0 8 -7 15 -15 15 -9 0
-12 -6 -9 -15z"/>
<path d="M6130 7370 c0 -5 -7 -10 -15 -10 -17 0 -49 -29 -58 -53 -8 -20 -45
-23 -53 -3 -3 8 -15 11 -30 8 -34 -6 -30 -22 6 -22 42 0 49 -25 16 -55 -33
-30 -62 -32 -69 -5 -3 11 -10 20 -16 20 -16 0 -13 -40 3 -46 8 -3 16 -14 19
-25 7 -25 27 -25 27 1 0 14 7 20 21 20 12 0 27 7 34 16 9 13 16 14 33 5 28
-15 100 -11 106 5 3 8 -8 28 -25 46 -40 45 -36 74 11 71 19 -1 29 1 23 3 -7 3
-13 12 -13 20 0 8 -4 14 -10 14 -5 0 -10 -4 -10 -10z"/>
<path d="M5425 7340 c-4 -6 -2 -17 4 -23 15 -15 25 -2 13 19 -7 12 -11 13 -17
4z"/>
<path d="M5580 7320 c-6 -12 -9 -24 -7 -27 3 -2 11 5 17 17 6 12 9 24 7 27 -3
2 -11 -5 -17 -17z"/>
<path d="M5720 7320 c0 -5 -7 -10 -16 -10 -12 0 -14 -3 -6 -13 6 -7 9 -23 5
-35 -4 -18 -1 -22 16 -22 22 0 29 24 10 36 -6 3 -8 17 -5 30 4 13 4 24 1 24
-3 0 -5 -4 -5 -10z"/>
<path d="M5625 7270 c4 -6 11 -8 16 -5 14 9 11 15 -7 15 -8 0 -12 -5 -9 -10z"/>
<path d="M6010 7164 c0 -11 42 -34 61 -34 12 0 39 25 39 35 0 4 -6 5 -14 2 -8
-3 -17 -3 -21 1 -11 11 -65 8 -65 -4z"/>
<path d="M5812 7149 c2 -7 10 -15 17 -17 8 -3 12 1 9 9 -2 7 -10 15 -17 17 -8
3 -12 -1 -9 -9z"/>
<path d="M5965 7140 c3 -5 8 -10 11 -10 2 0 4 5 4 10 0 6 -5 10 -11 10 -5 0
-7 -4 -4 -10z"/>
<path d="M5720 7116 c0 -2 7 -6 15 -10 8 -3 15 -1 15 4 0 6 -7 10 -15 10 -8 0
-15 -2 -15 -4z"/>
<path d="M5930 7090 c0 -5 5 -10 10 -10 6 0 10 5 10 10 0 6 -4 10 -10 10 -5 0
-10 -4 -10 -10z"/>
<path d="M4997 6613 c-4 -3 -7 -11 -7 -17 0 -6 5 -5 12 2 6 6 9 14 7 17 -3 3
-9 2 -12 -2z"/>
<path d="M6244 6406 c-11 -18 -16 -33 -10 -33 6 0 19 -4 29 -8 10 -4 17 -3 17
4 0 6 6 11 14 11 17 0 28 24 20 45 -10 26 -48 16 -70 -19z"/>
<path d="M6118 6207 c9 -10 7 -19 -5 -36 -15 -22 -15 -23 3 -13 25 13 30 62 8
62 -13 0 -14 -3 -6 -13z"/>
<path d="M6391 6103 c7 -10 15 -20 16 -22 2 -2 3 5 3 17 0 14 -6 22 -16 22
-14 0 -15 -3 -3 -17z"/>
<path d="M5080 5700 l-25 -8 28 -1 c15 -1 27 4 27 9 0 6 -1 10 -2 9 -2 -1 -14
-5 -28 -9z"/>
<path d="M5026 5643 c-12 -12 -5 -23 14 -23 11 0 20 4 20 9 0 11 -26 22 -34
14z"/>
<path d="M5012 5541 c9 -15 9 -23 -1 -35 -8 -10 -9 -16 -3 -16 13 0 17 7 26
43 5 23 3 27 -14 27 -17 0 -19 -3 -8 -19z"/>
<path d="M5092 5537 l-21 -23 21 -13 c18 -11 20 -11 14 4 -3 9 -1 25 4 36 14
25 8 24 -18 -4z"/>
<path d="M4975 5479 c-4 -6 -5 -12 -2 -15 2 -3 7 2 10 11 7 17 1 20 -8 4z"/>
<path d="M6120 4919 c0 -5 5 -7 10 -4 6 3 10 8 10 11 0 2 -4 4 -10 4 -5 0 -10
-5 -10 -11z"/>
<path d="M6005 4350 c3 -5 8 -10 11 -10 2 0 4 5 4 10 0 6 -5 10 -11 10 -5 0
-7 -4 -4 -10z"/>
<path d="M6427 3896 c-4 -10 -5 -21 -2 -24 9 -9 17 6 13 25 -3 17 -4 17 -11
-1z"/>
<path d="M6023 2824 c-16 -25 -16 -27 0 -36 21 -11 22 -34 3 -41 -9 -4 -12
-14 -9 -26 3 -14 0 -23 -11 -27 -9 -3 -16 -10 -16 -16 0 -5 4 -7 9 -4 18 11
31 -47 20 -89 -23 -89 -22 -92 10 -45 28 41 36 58 56 115 11 32 15 107 7 144
-10 47 -46 60 -69 25z"/>
<path d="M5605 2556 c-27 -25 -45 -72 -45 -118 0 -19 -8 -32 -30 -45 -16 -9
-30 -24 -30 -31 0 -8 -11 -28 -25 -44 -14 -16 -23 -34 -19 -39 3 -5 -5 -18
-17 -28 -20 -16 -21 -21 -10 -34 10 -13 8 -19 -13 -38 -17 -14 -26 -33 -26
-51 0 -25 3 -28 33 -28 61 0 168 142 217 290 12 36 25 69 28 75 11 18 13 77 2
70 -5 -3 -10 -2 -10 4 0 5 5 11 12 13 17 6 0 28 -22 28 -10 0 -31 -11 -45 -24z"/>
<path d="M5840 2539 c0 -5 5 -7 10 -4 6 3 10 8 10 11 0 2 -4 4 -10 4 -5 0 -10
-5 -10 -11z"/>
<path d="M5773 2510 c1 -11 5 -20 9 -20 11 0 10 28 -1 35 -6 3 -9 -4 -8 -15z"/>
<path d="M5856 2521 c-4 -7 -5 -15 -2 -18 9 -9 19 4 14 18 -4 11 -6 11 -12 0z"/>
<path d="M5743 2424 c-12 -26 -12 -26 7 -9 20 18 26 35 13 35 -5 0 -13 -12
-20 -26z"/>
<path d="M5900 2401 c0 -25 6 -27 13 -6 4 8 2 17 -3 20 -6 4 -10 -3 -10 -14z"/>
<path d="M5707 2363 c-4 -3 -7 -13 -7 -22 1 -13 3 -13 11 2 11 19 8 33 -4 20z"/>
<path d="M5102 2328 c-7 -9 -6 -17 3 -25 10 -9 13 -7 11 13 -1 28 -1 28 -14
12z"/>
<path d="M5673 2327 c4 -10 7 -24 7 -30 0 -8 3 -8 11 0 9 9 7 16 -7 30 -17 17
-18 17 -11 0z"/>
<path d="M5880 2330 c0 -5 5 -10 11 -10 5 0 7 5 4 10 -3 6 -8 10 -11 10 -2 0
-4 -4 -4 -10z"/>
<path d="M5641 2238 c-11 -18 -27 -41 -37 -50 -10 -10 -14 -21 -10 -25 4 -4
12 -1 16 7 5 8 21 34 35 58 14 23 24 42 20 42 -3 0 -14 -15 -24 -32z"/>
<path d="M5548 2117 c-15 -18 -40 -45 -55 -62 -15 -16 -27 -33 -26 -36 1 -4
-5 -6 -15 -5 -10 1 -16 -6 -16 -19 0 -11 -4 -23 -9 -26 -4 -3 -9 -16 -10 -27
-1 -12 -5 -22 -10 -22 -4 0 -5 -4 -2 -10 3 -5 1 -10 -6 -10 -10 0 -10 -3 0
-12 10 -11 19 -6 45 24 17 20 38 49 46 65 8 15 34 58 57 96 24 37 43 69 43 72
0 13 -17 1 -42 -28z"/>
</g>
</svg>
